<svg width="1363" height="297" viewBox="0 0 1363 297" fill="none" xmlns="http://www.w3.org/2000/svg">
<path d="M0 15C0 6.71573 6.71573 0 15 0H37V297H15C6.71573 297 0 290.284 0 282V15Z" fill="#00A72F"/>
<path d="M37 0H1066V297H37V0Z" fill="#F0F0F0"/>
<path d="M95.2852 49.4062H104.83C106.787 49.4062 108.469 49.6992 109.875 50.2852C111.293 50.8711 112.383 51.7383 113.145 52.8867C113.906 54.0352 114.287 55.4473 114.287 57.123C114.287 58.4941 114.053 59.6719 113.584 60.6562C113.127 61.6289 112.477 62.4434 111.633 63.0996C110.801 63.7441 109.822 64.2598 108.697 64.6465L107.027 65.5254H98.7305L98.6953 61.4121H104.865C105.791 61.4121 106.559 61.248 107.168 60.9199C107.777 60.5918 108.234 60.1348 108.539 59.5488C108.855 58.9629 109.014 58.2832 109.014 57.5098C109.014 56.6895 108.861 55.9805 108.557 55.3828C108.252 54.7852 107.789 54.3281 107.168 54.0117C106.547 53.6953 105.768 53.5371 104.83 53.5371H100.559V75H95.2852V49.4062ZM109.594 75L103.758 63.5918L109.33 63.5566L115.236 74.7539V75H109.594ZM128.297 70.7109V62.2383C128.297 61.6289 128.197 61.1074 127.998 60.6738C127.799 60.2285 127.488 59.8828 127.066 59.6367C126.656 59.3906 126.123 59.2676 125.467 59.2676C124.904 59.2676 124.418 59.3672 124.008 59.5664C123.598 59.7539 123.281 60.0293 123.059 60.3926C122.836 60.7441 122.725 61.1602 122.725 61.6406H117.662C117.662 60.832 117.85 60.0645 118.225 59.3379C118.6 58.6113 119.145 57.9727 119.859 57.4219C120.574 56.8594 121.424 56.4199 122.408 56.1035C123.404 55.7871 124.518 55.6289 125.748 55.6289C127.225 55.6289 128.537 55.875 129.686 56.3672C130.834 56.8594 131.736 57.5977 132.393 58.582C133.061 59.5664 133.395 60.7969 133.395 62.2734V70.4121C133.395 71.4551 133.459 72.3105 133.588 72.9785C133.717 73.6348 133.904 74.209 134.15 74.7012V75H129.035C128.789 74.4844 128.602 73.8398 128.473 73.0664C128.355 72.2812 128.297 71.4961 128.297 70.7109ZM128.965 63.416L129 66.2812H126.17C125.502 66.2812 124.922 66.3574 124.43 66.5098C123.938 66.6621 123.533 66.8789 123.217 67.1602C122.9 67.4297 122.666 67.7461 122.514 68.1094C122.373 68.4727 122.303 68.8711 122.303 69.3047C122.303 69.7383 122.402 70.1309 122.602 70.4824C122.801 70.8223 123.088 71.0918 123.463 71.291C123.838 71.4785 124.277 71.5723 124.781 71.5723C125.543 71.5723 126.205 71.4199 126.768 71.1152C127.33 70.8105 127.764 70.4355 128.068 69.9902C128.385 69.5449 128.549 69.123 128.561 68.7246L129.896 70.8691C129.709 71.3496 129.451 71.8477 129.123 72.3633C128.807 72.8789 128.402 73.3652 127.91 73.8223C127.418 74.2676 126.826 74.6367 126.135 74.9297C125.443 75.2109 124.623 75.3516 123.674 75.3516C122.467 75.3516 121.371 75.1113 120.387 74.6309C119.414 74.1387 118.641 73.4648 118.066 72.6094C117.504 71.7422 117.223 70.7578 117.223 69.6562C117.223 68.6602 117.41 67.7754 117.785 67.002C118.16 66.2285 118.711 65.5781 119.438 65.0508C120.176 64.5117 121.096 64.1074 122.197 63.8379C123.299 63.5566 124.576 63.416 126.029 63.416H128.965ZM142.658 72.8555L147.703 55.9805H153.135L145.488 77.8652C145.324 78.3457 145.102 78.8613 144.82 79.4121C144.551 79.9629 144.182 80.4844 143.713 80.9766C143.256 81.4805 142.676 81.8906 141.973 82.207C141.281 82.5234 140.432 82.6816 139.424 82.6816C138.943 82.6816 138.551 82.6523 138.246 82.5938C137.941 82.5352 137.578 82.4531 137.156 82.3477V78.6387C137.285 78.6387 137.42 78.6387 137.561 78.6387C137.701 78.6504 137.836 78.6562 137.965 78.6562C138.633 78.6562 139.178 78.5801 139.6 78.4277C140.021 78.2754 140.361 78.041 140.619 77.7246C140.877 77.4199 141.082 77.0215 141.234 76.5293L142.658 72.8555ZM140.549 55.9805L144.68 69.7617L145.4 75.123L141.955 75.4922L135.117 55.9805H140.549ZM165.141 70.7109V62.2383C165.141 61.6289 165.041 61.1074 164.842 60.6738C164.643 60.2285 164.332 59.8828 163.91 59.6367C163.5 59.3906 162.967 59.2676 162.311 59.2676C161.748 59.2676 161.262 59.3672 160.852 59.5664C160.441 59.7539 160.125 60.0293 159.902 60.3926C159.68 60.7441 159.568 61.1602 159.568 61.6406H154.506C154.506 60.832 154.693 60.0645 155.068 59.3379C155.443 58.6113 155.988 57.9727 156.703 57.4219C157.418 56.8594 158.268 56.4199 159.252 56.1035C160.248 55.7871 161.361 55.6289 162.592 55.6289C164.068 55.6289 165.381 55.875 166.529 56.3672C167.678 56.8594 168.58 57.5977 169.236 58.582C169.904 59.5664 170.238 60.7969 170.238 62.2734V70.4121C170.238 71.4551 170.303 72.3105 170.432 72.9785C170.561 73.6348 170.748 74.209 170.994 74.7012V75H165.879C165.633 74.4844 165.445 73.8398 165.316 73.0664C165.199 72.2812 165.141 71.4961 165.141 70.7109ZM165.809 63.416L165.844 66.2812H163.014C162.346 66.2812 161.766 66.3574 161.273 66.5098C160.781 66.6621 160.377 66.8789 160.061 67.1602C159.744 67.4297 159.51 67.7461 159.357 68.1094C159.217 68.4727 159.146 68.8711 159.146 69.3047C159.146 69.7383 159.246 70.1309 159.445 70.4824C159.645 70.8223 159.932 71.0918 160.307 71.291C160.682 71.4785 161.121 71.5723 161.625 71.5723C162.387 71.5723 163.049 71.4199 163.611 71.1152C164.174 70.8105 164.607 70.4355 164.912 69.9902C165.229 69.5449 165.393 69.123 165.404 68.7246L166.74 70.8691C166.553 71.3496 166.295 71.8477 165.967 72.3633C165.65 72.8789 165.246 73.3652 164.754 73.8223C164.262 74.2676 163.67 74.6367 162.979 74.9297C162.287 75.2109 161.467 75.3516 160.518 75.3516C159.311 75.3516 158.215 75.1113 157.23 74.6309C156.258 74.1387 155.484 73.4648 154.91 72.6094C154.348 71.7422 154.066 70.7578 154.066 69.6562C154.066 68.6602 154.254 67.7754 154.629 67.002C155.004 66.2285 155.555 65.5781 156.281 65.0508C157.02 64.5117 157.939 64.1074 159.041 63.8379C160.143 63.5566 161.42 63.416 162.873 63.416H165.809ZM179.098 60.041V75H174.035V55.9805H178.781L179.098 60.041ZM178.359 64.8223H176.988C176.988 63.416 177.17 62.1504 177.533 61.0254C177.896 59.8887 178.406 58.9219 179.062 58.125C179.719 57.3164 180.498 56.7012 181.4 56.2793C182.314 55.8457 183.334 55.6289 184.459 55.6289C185.35 55.6289 186.164 55.7578 186.902 56.0156C187.641 56.2734 188.273 56.6836 188.801 57.2461C189.34 57.8086 189.75 58.5527 190.031 59.4785C190.324 60.4043 190.471 61.5352 190.471 62.8711V75H185.373V62.8535C185.373 62.0098 185.256 61.3535 185.021 60.8848C184.787 60.416 184.441 60.0879 183.984 59.9004C183.539 59.7012 182.988 59.6016 182.332 59.6016C181.652 59.6016 181.061 59.7363 180.557 60.0059C180.064 60.2754 179.654 60.6504 179.326 61.1309C179.01 61.5996 178.77 62.1504 178.605 62.7832C178.441 63.416 178.359 64.0957 178.359 64.8223ZM220.775 70.8867V75H207.152V70.8867H220.775ZM208.875 49.4062V75H203.602V49.4062H208.875ZM219 59.8301V63.8379H207.152V59.8301H219ZM220.758 49.4062V53.5371H207.152V49.4062H220.758ZM228.598 59.918V75H223.518V55.9805H228.281L228.598 59.918ZM227.895 64.8223H226.488C226.488 63.498 226.646 62.2793 226.963 61.166C227.291 60.041 227.766 59.0684 228.387 58.248C229.02 57.416 229.799 56.7715 230.725 56.3145C231.65 55.8574 232.723 55.6289 233.941 55.6289C234.785 55.6289 235.559 55.7578 236.262 56.0156C236.965 56.2617 237.568 56.6543 238.072 57.1934C238.588 57.7207 238.986 58.4121 239.268 59.2676C239.549 60.1113 239.689 61.125 239.689 62.3086V75H234.627V62.8711C234.627 62.0039 234.51 61.3359 234.275 60.8672C234.041 60.3984 233.707 60.0703 233.273 59.8828C232.852 59.6953 232.342 59.6016 231.744 59.6016C231.088 59.6016 230.514 59.7363 230.021 60.0059C229.541 60.2754 229.143 60.6504 228.826 61.1309C228.51 61.5996 228.275 62.1504 228.123 62.7832C227.971 63.416 227.895 64.0957 227.895 64.8223ZM239.215 64.2422L237.404 64.4707C237.404 63.2285 237.557 62.0742 237.861 61.0078C238.178 59.9414 238.641 59.0039 239.25 58.1953C239.871 57.3867 240.639 56.7598 241.553 56.3145C242.467 55.8574 243.521 55.6289 244.717 55.6289C245.631 55.6289 246.463 55.7637 247.213 56.0332C247.963 56.291 248.602 56.707 249.129 57.2812C249.668 57.8438 250.078 58.582 250.359 59.4961C250.652 60.4102 250.799 61.5293 250.799 62.8535V75H245.719V62.8535C245.719 61.9746 245.602 61.3066 245.367 60.8496C245.145 60.3809 244.816 60.0586 244.383 59.8828C243.961 59.6953 243.457 59.6016 242.871 59.6016C242.262 59.6016 241.729 59.7246 241.271 59.9707C240.814 60.2051 240.434 60.5332 240.129 60.9551C239.824 61.377 239.596 61.8691 239.443 62.4316C239.291 62.9824 239.215 63.5859 239.215 64.2422ZM264.984 70.7109V62.2383C264.984 61.6289 264.885 61.1074 264.686 60.6738C264.486 60.2285 264.176 59.8828 263.754 59.6367C263.344 59.3906 262.811 59.2676 262.154 59.2676C261.592 59.2676 261.105 59.3672 260.695 59.5664C260.285 59.7539 259.969 60.0293 259.746 60.3926C259.523 60.7441 259.412 61.1602 259.412 61.6406H254.35C254.35 60.832 254.537 60.0645 254.912 59.3379C255.287 58.6113 255.832 57.9727 256.547 57.4219C257.262 56.8594 258.111 56.4199 259.096 56.1035C260.092 55.7871 261.205 55.6289 262.436 55.6289C263.912 55.6289 265.225 55.875 266.373 56.3672C267.521 56.8594 268.424 57.5977 269.08 58.582C269.748 59.5664 270.082 60.7969 270.082 62.2734V70.4121C270.082 71.4551 270.146 72.3105 270.275 72.9785C270.404 73.6348 270.592 74.209 270.838 74.7012V75H265.723C265.477 74.4844 265.289 73.8398 265.16 73.0664C265.043 72.2812 264.984 71.4961 264.984 70.7109ZM265.652 63.416L265.688 66.2812H262.857C262.189 66.2812 261.609 66.3574 261.117 66.5098C260.625 66.6621 260.221 66.8789 259.904 67.1602C259.588 67.4297 259.354 67.7461 259.201 68.1094C259.061 68.4727 258.99 68.8711 258.99 69.3047C258.99 69.7383 259.09 70.1309 259.289 70.4824C259.488 70.8223 259.775 71.0918 260.15 71.291C260.525 71.4785 260.965 71.5723 261.469 71.5723C262.23 71.5723 262.893 71.4199 263.455 71.1152C264.018 70.8105 264.451 70.4355 264.756 69.9902C265.072 69.5449 265.236 69.123 265.248 68.7246L266.584 70.8691C266.396 71.3496 266.139 71.8477 265.811 72.3633C265.494 72.8789 265.09 73.3652 264.598 73.8223C264.105 74.2676 263.514 74.6367 262.822 74.9297C262.131 75.2109 261.311 75.3516 260.361 75.3516C259.154 75.3516 258.059 75.1113 257.074 74.6309C256.102 74.1387 255.328 73.4648 254.754 72.6094C254.191 71.7422 253.91 70.7578 253.91 69.6562C253.91 68.6602 254.098 67.7754 254.473 67.002C254.848 66.2285 255.398 65.5781 256.125 65.0508C256.863 64.5117 257.783 64.1074 258.885 63.8379C259.986 63.5566 261.264 63.416 262.717 63.416H265.652ZM285.217 70.8516V48H290.314V75H285.727L285.217 70.8516ZM273.193 65.7188V65.3496C273.193 63.8965 273.357 62.5781 273.686 61.3945C274.014 60.1992 274.494 59.1738 275.127 58.3184C275.76 57.4629 276.539 56.8008 277.465 56.332C278.391 55.8633 279.445 55.6289 280.629 55.6289C281.742 55.6289 282.715 55.8633 283.547 56.332C284.391 56.8008 285.105 57.4688 285.691 58.3359C286.289 59.1914 286.77 60.2051 287.133 61.377C287.496 62.5371 287.76 63.8086 287.924 65.1914V66C287.76 67.3242 287.496 68.5547 287.133 69.6914C286.77 70.8281 286.289 71.8242 285.691 72.6797C285.105 73.5234 284.391 74.1797 283.547 74.6484C282.703 75.1172 281.719 75.3516 280.594 75.3516C279.41 75.3516 278.355 75.1113 277.43 74.6309C276.516 74.1504 275.742 73.4766 275.109 72.6094C274.488 71.7422 274.014 70.7227 273.686 69.5508C273.357 68.3789 273.193 67.1016 273.193 65.7188ZM278.256 65.3496V65.7188C278.256 66.5039 278.314 67.2363 278.432 67.916C278.561 68.5957 278.766 69.1992 279.047 69.7266C279.34 70.2422 279.715 70.6465 280.172 70.9395C280.641 71.2207 281.209 71.3613 281.877 71.3613C282.744 71.3613 283.459 71.168 284.021 70.7812C284.584 70.3828 285.012 69.8379 285.305 69.1465C285.609 68.4551 285.785 67.6582 285.832 66.7559V64.4531C285.797 63.7148 285.691 63.0527 285.516 62.4668C285.352 61.8691 285.105 61.3594 284.777 60.9375C284.461 60.5156 284.062 60.1875 283.582 59.9531C283.113 59.7188 282.557 59.6016 281.912 59.6016C281.256 59.6016 280.693 59.7539 280.225 60.0586C279.756 60.3516 279.375 60.7559 279.082 61.2715C278.801 61.7871 278.59 62.3965 278.449 63.0996C278.32 63.791 278.256 64.541 278.256 65.3496Z" fill="#888888"/>
<path d="M123.434 132.617V140H102.215V132.617H123.434ZM105.633 100.188V140H96.0352V100.188H105.633ZM120.699 115.992V123.129H102.215V115.992H120.699ZM123.516 100.188V107.598H102.215V100.188H123.516ZM138.883 133.438C139.74 133.438 140.469 133.283 141.07 132.973C141.69 132.645 142.155 132.189 142.465 131.605C142.793 131.004 142.948 130.284 142.93 129.445H151.598C151.616 131.669 151.069 133.62 149.957 135.297C148.863 136.956 147.368 138.25 145.473 139.18C143.595 140.091 141.471 140.547 139.102 140.547C136.786 140.547 134.763 140.173 133.031 139.426C131.299 138.66 129.85 137.603 128.684 136.254C127.535 134.887 126.669 133.292 126.086 131.469C125.521 129.646 125.238 127.668 125.238 125.535V124.906C125.238 122.773 125.521 120.796 126.086 118.973C126.669 117.132 127.535 115.536 128.684 114.188C129.85 112.82 131.29 111.763 133.004 111.016C134.736 110.25 136.75 109.867 139.047 109.867C141.508 109.867 143.677 110.332 145.555 111.262C147.451 112.191 148.936 113.54 150.012 115.309C151.087 117.077 151.616 119.219 151.598 121.734H142.93C142.948 120.841 142.811 120.039 142.52 119.328C142.228 118.617 141.772 118.052 141.152 117.633C140.551 117.195 139.776 116.977 138.828 116.977C137.88 116.977 137.115 117.186 136.531 117.605C135.948 118.025 135.501 118.608 135.191 119.355C134.9 120.085 134.699 120.923 134.59 121.871C134.499 122.819 134.453 123.831 134.453 124.906V125.535C134.453 126.629 134.499 127.659 134.59 128.625C134.699 129.573 134.909 130.411 135.219 131.141C135.529 131.852 135.975 132.417 136.559 132.836C137.142 133.237 137.917 133.438 138.883 133.438ZM154.387 125.508V124.934C154.387 122.764 154.697 120.768 155.316 118.945C155.936 117.104 156.848 115.509 158.051 114.16C159.254 112.811 160.74 111.763 162.508 111.016C164.276 110.25 166.318 109.867 168.633 109.867C170.966 109.867 173.017 110.25 174.785 111.016C176.572 111.763 178.066 112.811 179.27 114.16C180.473 115.509 181.384 117.104 182.004 118.945C182.624 120.768 182.934 122.764 182.934 124.934V125.508C182.934 127.659 182.624 129.655 182.004 131.496C181.384 133.319 180.473 134.914 179.27 136.281C178.066 137.63 176.581 138.678 174.812 139.426C173.044 140.173 171.003 140.547 168.688 140.547C166.372 140.547 164.322 140.173 162.535 139.426C160.749 138.678 159.254 137.63 158.051 136.281C156.848 134.914 155.936 133.319 155.316 131.496C154.697 129.655 154.387 127.659 154.387 125.508ZM163.602 124.934V125.508C163.602 126.62 163.684 127.659 163.848 128.625C164.012 129.591 164.285 130.439 164.668 131.168C165.051 131.879 165.57 132.435 166.227 132.836C166.883 133.237 167.703 133.438 168.688 133.438C169.654 133.438 170.456 133.237 171.094 132.836C171.75 132.435 172.27 131.879 172.652 131.168C173.035 130.439 173.309 129.591 173.473 128.625C173.637 127.659 173.719 126.62 173.719 125.508V124.934C173.719 123.858 173.637 122.846 173.473 121.898C173.309 120.932 173.035 120.085 172.652 119.355C172.27 118.608 171.75 118.025 171.094 117.605C170.438 117.186 169.617 116.977 168.633 116.977C167.667 116.977 166.855 117.186 166.199 117.605C165.561 118.025 165.051 118.608 164.668 119.355C164.285 120.085 164.012 120.932 163.848 121.898C163.684 122.846 163.602 123.858 163.602 124.934ZM206.75 100.188V140H197.152V100.188H206.75ZM218.727 100.188V107.598H185.449V100.188H218.727ZM234.23 140.547C231.824 140.547 229.673 140.173 227.777 139.426C225.882 138.66 224.277 137.612 222.965 136.281C221.671 134.951 220.677 133.419 219.984 131.688C219.31 129.956 218.973 128.124 218.973 126.191V125.152C218.973 122.983 219.273 120.978 219.875 119.137C220.477 117.277 221.37 115.655 222.555 114.27C223.74 112.884 225.225 111.809 227.012 111.043C228.798 110.259 230.876 109.867 233.246 109.867C235.342 109.867 237.22 110.204 238.879 110.879C240.538 111.553 241.941 112.52 243.09 113.777C244.257 115.035 245.141 116.557 245.742 118.344C246.362 120.13 246.672 122.135 246.672 124.359V128.105H222.5V122.336H237.676V121.625C237.694 120.641 237.521 119.802 237.156 119.109C236.81 118.417 236.299 117.888 235.625 117.523C234.951 117.159 234.13 116.977 233.164 116.977C232.161 116.977 231.332 117.195 230.676 117.633C230.038 118.07 229.536 118.672 229.172 119.438C228.826 120.185 228.579 121.051 228.434 122.035C228.288 123.02 228.215 124.059 228.215 125.152V126.191C228.215 127.285 228.361 128.279 228.652 129.172C228.962 130.065 229.4 130.831 229.965 131.469C230.548 132.089 231.241 132.572 232.043 132.918C232.863 133.264 233.793 133.438 234.832 133.438C236.09 133.438 237.329 133.201 238.551 132.727C239.772 132.253 240.82 131.469 241.695 130.375L245.879 135.352C245.277 136.208 244.421 137.038 243.309 137.84C242.215 138.642 240.902 139.298 239.371 139.809C237.84 140.301 236.126 140.547 234.23 140.547ZM262.914 133.438C263.771 133.438 264.5 133.283 265.102 132.973C265.721 132.645 266.186 132.189 266.496 131.605C266.824 131.004 266.979 130.284 266.961 129.445H275.629C275.647 131.669 275.1 133.62 273.988 135.297C272.895 136.956 271.4 138.25 269.504 139.18C267.626 140.091 265.503 140.547 263.133 140.547C260.818 140.547 258.794 140.173 257.062 139.426C255.331 138.66 253.882 137.603 252.715 136.254C251.566 134.887 250.701 133.292 250.117 131.469C249.552 129.646 249.27 127.668 249.27 125.535V124.906C249.27 122.773 249.552 120.796 250.117 118.973C250.701 117.132 251.566 115.536 252.715 114.188C253.882 112.82 255.322 111.763 257.035 111.016C258.767 110.25 260.781 109.867 263.078 109.867C265.539 109.867 267.708 110.332 269.586 111.262C271.482 112.191 272.967 113.54 274.043 115.309C275.118 117.077 275.647 119.219 275.629 121.734H266.961C266.979 120.841 266.842 120.039 266.551 119.328C266.259 118.617 265.803 118.052 265.184 117.633C264.582 117.195 263.807 116.977 262.859 116.977C261.911 116.977 261.146 117.186 260.562 117.605C259.979 118.025 259.533 118.608 259.223 119.355C258.931 120.085 258.73 120.923 258.621 121.871C258.53 122.819 258.484 123.831 258.484 124.906V125.535C258.484 126.629 258.53 127.659 258.621 128.625C258.73 129.573 258.94 130.411 259.25 131.141C259.56 131.852 260.007 132.417 260.59 132.836C261.173 133.237 261.948 133.438 262.914 133.438ZM288.59 98V140H279.375V98H288.59ZM287.496 124.195L285.336 124.25C285.336 122.172 285.591 120.258 286.102 118.508C286.612 116.758 287.341 115.236 288.289 113.941C289.237 112.647 290.376 111.645 291.707 110.934C293.038 110.223 294.514 109.867 296.137 109.867C297.595 109.867 298.926 110.077 300.129 110.496C301.35 110.915 302.398 111.59 303.273 112.52C304.167 113.449 304.85 114.661 305.324 116.156C305.816 117.651 306.062 119.474 306.062 121.625V140H296.793V121.57C296.793 120.367 296.62 119.438 296.273 118.781C295.945 118.107 295.471 117.642 294.852 117.387C294.232 117.113 293.475 116.977 292.582 116.977C291.507 116.977 290.632 117.159 289.957 117.523C289.283 117.888 288.763 118.398 288.398 119.055C288.052 119.693 287.815 120.449 287.688 121.324C287.56 122.199 287.496 123.156 287.496 124.195Z" fill="black"/>
<rect x="93" y="178" width="917" height="77" rx="10" fill="#D3D3D3"/>
<rect x="111" y="196" width="148" height="41" rx="3" fill="#424242"/>
<rect x="111" y="196" width="148" height="41" rx="3" stroke="#424242" stroke-width="4"/>
<path d="M134.234 210.203H139.271C140.255 210.203 141.11 210.35 141.837 210.643C142.563 210.936 143.123 211.369 143.516 211.943C143.914 212.518 144.113 213.227 144.113 214.07C144.113 214.803 143.999 215.415 143.771 215.907C143.542 216.399 143.223 216.807 142.812 217.129C142.408 217.445 141.937 217.706 141.397 217.911L140.387 218.482H136.159L136.142 216.101H139.271C139.663 216.101 139.988 216.03 140.246 215.89C140.504 215.749 140.697 215.55 140.826 215.292C140.961 215.028 141.028 214.715 141.028 214.352C141.028 213.982 140.961 213.666 140.826 213.402C140.691 213.139 140.492 212.937 140.229 212.796C139.971 212.655 139.651 212.585 139.271 212.585H137.319V223H134.234V210.203ZM141.239 223L138.409 217.34L141.679 217.322L144.544 222.868V223H141.239ZM150.441 223.176C149.668 223.176 148.977 223.056 148.367 222.815C147.758 222.569 147.242 222.232 146.82 221.805C146.404 221.377 146.085 220.885 145.862 220.328C145.646 219.771 145.537 219.183 145.537 218.562V218.228C145.537 217.53 145.634 216.886 145.827 216.294C146.021 215.696 146.308 215.175 146.688 214.729C147.069 214.284 147.547 213.938 148.121 213.692C148.695 213.44 149.363 213.314 150.125 213.314C150.799 213.314 151.402 213.423 151.936 213.64C152.469 213.856 152.92 214.167 153.289 214.571C153.664 214.976 153.948 215.465 154.142 216.039C154.341 216.613 154.44 217.258 154.44 217.973V219.177H146.671V217.322H151.549V217.094C151.555 216.777 151.499 216.508 151.382 216.285C151.271 216.062 151.106 215.893 150.89 215.775C150.673 215.658 150.409 215.6 150.099 215.6C149.776 215.6 149.51 215.67 149.299 215.811C149.094 215.951 148.933 216.145 148.815 216.391C148.704 216.631 148.625 216.909 148.578 217.226C148.531 217.542 148.508 217.876 148.508 218.228V218.562C148.508 218.913 148.555 219.232 148.648 219.52C148.748 219.807 148.889 220.053 149.07 220.258C149.258 220.457 149.48 220.612 149.738 220.724C150.002 220.835 150.301 220.891 150.635 220.891C151.039 220.891 151.438 220.814 151.83 220.662C152.223 220.51 152.56 220.258 152.841 219.906L154.186 221.506C153.992 221.781 153.717 222.048 153.359 222.306C153.008 222.563 152.586 222.774 152.094 222.938C151.602 223.097 151.051 223.176 150.441 223.176ZM160.584 220.609V216.689C160.584 216.42 160.546 216.188 160.47 215.995C160.394 215.802 160.273 215.652 160.109 215.547C159.945 215.436 159.726 215.38 159.45 215.38C159.228 215.38 159.037 215.418 158.879 215.494C158.721 215.57 158.601 215.685 158.519 215.837C158.437 215.989 158.396 216.183 158.396 216.417H155.434C155.434 215.978 155.53 215.57 155.724 215.195C155.923 214.814 156.204 214.483 156.567 214.202C156.937 213.921 157.376 213.704 157.886 213.552C158.401 213.394 158.976 213.314 159.608 213.314C160.364 213.314 161.038 213.44 161.63 213.692C162.228 213.944 162.699 214.322 163.045 214.826C163.391 215.324 163.563 215.951 163.563 216.707V220.601C163.563 221.222 163.599 221.693 163.669 222.016C163.739 222.332 163.839 222.61 163.968 222.851V223H160.997C160.856 222.707 160.751 222.35 160.681 221.928C160.616 221.5 160.584 221.061 160.584 220.609ZM160.944 217.19L160.962 218.772H159.652C159.377 218.772 159.143 218.811 158.949 218.887C158.762 218.963 158.609 219.068 158.492 219.203C158.381 219.332 158.299 219.479 158.246 219.643C158.199 219.807 158.176 219.979 158.176 220.161C158.176 220.337 158.217 220.495 158.299 220.636C158.387 220.771 158.504 220.876 158.65 220.952C158.797 221.028 158.961 221.066 159.143 221.066C159.471 221.066 159.749 221.005 159.978 220.882C160.212 220.753 160.391 220.598 160.514 220.416C160.637 220.234 160.698 220.064 160.698 219.906L161.349 221.119C161.231 221.354 161.097 221.591 160.944 221.831C160.798 222.071 160.613 222.294 160.391 222.499C160.174 222.698 159.907 222.862 159.591 222.991C159.274 223.114 158.891 223.176 158.439 223.176C157.854 223.176 157.314 223.056 156.822 222.815C156.336 222.575 155.946 222.241 155.653 221.813C155.36 221.38 155.214 220.882 155.214 220.319C155.214 219.827 155.302 219.388 155.478 219.001C155.659 218.614 155.932 218.286 156.295 218.017C156.658 217.747 157.121 217.542 157.684 217.401C158.246 217.261 158.908 217.19 159.67 217.19H160.944ZM169.224 220.891C169.499 220.891 169.733 220.841 169.927 220.741C170.126 220.636 170.275 220.489 170.375 220.302C170.48 220.108 170.53 219.877 170.524 219.607H173.311C173.316 220.322 173.141 220.949 172.783 221.488C172.432 222.021 171.951 222.438 171.342 222.736C170.738 223.029 170.056 223.176 169.294 223.176C168.55 223.176 167.899 223.056 167.343 222.815C166.786 222.569 166.32 222.229 165.945 221.796C165.576 221.356 165.298 220.844 165.11 220.258C164.929 219.672 164.838 219.036 164.838 218.351V218.148C164.838 217.463 164.929 216.827 165.11 216.241C165.298 215.649 165.576 215.137 165.945 214.703C166.32 214.264 166.783 213.924 167.334 213.684C167.891 213.438 168.538 213.314 169.276 213.314C170.067 213.314 170.765 213.464 171.368 213.763C171.978 214.062 172.455 214.495 172.801 215.063C173.146 215.632 173.316 216.32 173.311 217.129H170.524C170.53 216.842 170.486 216.584 170.393 216.355C170.299 216.127 170.152 215.945 169.953 215.811C169.76 215.67 169.511 215.6 169.206 215.6C168.901 215.6 168.655 215.667 168.468 215.802C168.28 215.937 168.137 216.124 168.037 216.364C167.943 216.599 167.879 216.868 167.844 217.173C167.814 217.478 167.8 217.803 167.8 218.148V218.351C167.8 218.702 167.814 219.033 167.844 219.344C167.879 219.648 167.946 219.918 168.046 220.152C168.146 220.381 168.289 220.562 168.477 220.697C168.664 220.826 168.913 220.891 169.224 220.891ZM179.586 213.49V215.547H173.855V213.49H179.586ZM175.06 211.126H178.021V219.897C178.021 220.149 178.051 220.346 178.109 220.486C178.168 220.621 178.268 220.718 178.408 220.776C178.555 220.829 178.748 220.855 178.988 220.855C179.158 220.855 179.299 220.853 179.41 220.847C179.521 220.835 179.627 220.82 179.727 220.803V222.921C179.475 223.003 179.211 223.064 178.936 223.105C178.66 223.152 178.367 223.176 178.057 223.176C177.424 223.176 176.882 223.076 176.431 222.877C175.985 222.678 175.646 222.364 175.411 221.937C175.177 221.509 175.06 220.952 175.06 220.267V211.126ZM196.074 210.203V223H192.998L188.472 215.037V223H185.387V210.203H188.472L192.998 218.166V210.203H196.074ZM202.824 220.609V216.689C202.824 216.42 202.786 216.188 202.71 215.995C202.634 215.802 202.514 215.652 202.35 215.547C202.186 215.436 201.966 215.38 201.69 215.38C201.468 215.38 201.277 215.418 201.119 215.494C200.961 215.57 200.841 215.685 200.759 215.837C200.677 215.989 200.636 216.183 200.636 216.417H197.674C197.674 215.978 197.771 215.57 197.964 215.195C198.163 214.814 198.444 214.483 198.808 214.202C199.177 213.921 199.616 213.704 200.126 213.552C200.642 213.394 201.216 213.314 201.849 213.314C202.604 213.314 203.278 213.44 203.87 213.692C204.468 213.944 204.939 214.322 205.285 214.826C205.631 215.324 205.804 215.951 205.804 216.707V220.601C205.804 221.222 205.839 221.693 205.909 222.016C205.979 222.332 206.079 222.61 206.208 222.851V223H203.237C203.097 222.707 202.991 222.35 202.921 221.928C202.856 221.5 202.824 221.061 202.824 220.609ZM203.185 217.19L203.202 218.772H201.893C201.617 218.772 201.383 218.811 201.189 218.887C201.002 218.963 200.85 219.068 200.732 219.203C200.621 219.332 200.539 219.479 200.486 219.643C200.439 219.807 200.416 219.979 200.416 220.161C200.416 220.337 200.457 220.495 200.539 220.636C200.627 220.771 200.744 220.876 200.891 220.952C201.037 221.028 201.201 221.066 201.383 221.066C201.711 221.066 201.989 221.005 202.218 220.882C202.452 220.753 202.631 220.598 202.754 220.416C202.877 220.234 202.938 220.064 202.938 219.906L203.589 221.119C203.472 221.354 203.337 221.591 203.185 221.831C203.038 222.071 202.854 222.294 202.631 222.499C202.414 222.698 202.147 222.862 201.831 222.991C201.515 223.114 201.131 223.176 200.68 223.176C200.094 223.176 199.555 223.056 199.062 222.815C198.576 222.575 198.187 222.241 197.894 221.813C197.601 221.38 197.454 220.882 197.454 220.319C197.454 219.827 197.542 219.388 197.718 219.001C197.899 218.614 198.172 218.286 198.535 218.017C198.898 217.747 199.361 217.542 199.924 217.401C200.486 217.261 201.148 217.19 201.91 217.19H203.185ZM212.457 213.49V215.547H206.727V213.49H212.457ZM207.931 211.126H210.893V219.897C210.893 220.149 210.922 220.346 210.98 220.486C211.039 220.621 211.139 220.718 211.279 220.776C211.426 220.829 211.619 220.855 211.859 220.855C212.029 220.855 212.17 220.853 212.281 220.847C212.393 220.835 212.498 220.82 212.598 220.803V222.921C212.346 223.003 212.082 223.064 211.807 223.105C211.531 223.152 211.238 223.176 210.928 223.176C210.295 223.176 209.753 223.076 209.302 222.877C208.856 222.678 208.517 222.364 208.282 221.937C208.048 221.509 207.931 220.952 207.931 220.267V211.126ZM216.764 213.49V223H213.793V213.49H216.764ZM213.617 211.038C213.617 210.616 213.77 210.271 214.074 210.001C214.379 209.731 214.774 209.597 215.261 209.597C215.747 209.597 216.143 209.731 216.447 210.001C216.752 210.271 216.904 210.616 216.904 211.038C216.904 211.46 216.752 211.806 216.447 212.075C216.143 212.345 215.747 212.479 215.261 212.479C214.774 212.479 214.379 212.345 214.074 212.075C213.77 211.806 213.617 211.46 213.617 211.038ZM222.02 220.97L223.892 213.49H227.012L223.9 223H222.055L222.02 220.97ZM220.912 213.49L222.758 220.97L222.74 223H220.886L217.783 213.49H220.912ZM232.373 223.176C231.6 223.176 230.908 223.056 230.299 222.815C229.689 222.569 229.174 222.232 228.752 221.805C228.336 221.377 228.017 220.885 227.794 220.328C227.577 219.771 227.469 219.183 227.469 218.562V218.228C227.469 217.53 227.565 216.886 227.759 216.294C227.952 215.696 228.239 215.175 228.62 214.729C229.001 214.284 229.479 213.938 230.053 213.692C230.627 213.44 231.295 213.314 232.057 213.314C232.73 213.314 233.334 213.423 233.867 213.64C234.4 213.856 234.852 214.167 235.221 214.571C235.596 214.976 235.88 215.465 236.073 216.039C236.272 216.613 236.372 217.258 236.372 217.973V219.177H228.603V217.322H233.48V217.094C233.486 216.777 233.431 216.508 233.313 216.285C233.202 216.062 233.038 215.893 232.821 215.775C232.604 215.658 232.341 215.6 232.03 215.6C231.708 215.6 231.441 215.67 231.23 215.811C231.025 215.951 230.864 216.145 230.747 216.391C230.636 216.631 230.557 216.909 230.51 217.226C230.463 217.542 230.439 217.876 230.439 218.228V218.562C230.439 218.913 230.486 219.232 230.58 219.52C230.68 219.807 230.82 220.053 231.002 220.258C231.189 220.457 231.412 220.612 231.67 220.724C231.934 220.835 232.232 220.891 232.566 220.891C232.971 220.891 233.369 220.814 233.762 220.662C234.154 220.51 234.491 220.258 234.772 219.906L236.117 221.506C235.924 221.781 235.648 222.048 235.291 222.306C234.939 222.563 234.518 222.774 234.025 222.938C233.533 223.097 232.982 223.176 232.373 223.176Z" fill="white"/>
<rect x="279" y="196" width="130" height="41" rx="3" fill="#424242"/>
<rect x="279" y="196" width="130" height="41" rx="3" stroke="#424242" stroke-width="4"/>
<path d="M310.883 220.627V223H304.062V220.627H310.883ZM305.161 210.203V223H302.076V210.203H305.161ZM310.004 215.283V217.577H304.062V215.283H310.004ZM310.909 210.203V212.585H304.062V210.203H310.909ZM314.521 213.49L315.857 216.109L317.237 213.49H320.313L317.817 218.122L320.445 223H317.343L315.857 220.188L314.381 223H311.278L313.906 218.122L311.419 213.49H314.521ZM324.277 215.318V226.656H321.315V213.49H324.075L324.277 215.318ZM330.113 218.131V218.315C330.113 219.007 330.034 219.648 329.876 220.24C329.718 220.832 329.483 221.348 329.173 221.787C328.862 222.227 328.476 222.569 328.013 222.815C327.556 223.056 327.025 223.176 326.422 223.176C325.854 223.176 325.364 223.05 324.954 222.798C324.544 222.546 324.201 222.197 323.926 221.752C323.65 221.307 323.428 220.797 323.258 220.223C323.088 219.648 322.953 219.042 322.854 218.403V218.166C322.953 217.48 323.088 216.845 323.258 216.259C323.428 215.667 323.65 215.151 323.926 214.712C324.201 214.272 324.541 213.93 324.945 213.684C325.355 213.438 325.845 213.314 326.413 213.314C327.017 213.314 327.547 213.429 328.004 213.657C328.467 213.886 328.854 214.214 329.164 214.642C329.48 215.063 329.718 215.57 329.876 216.162C330.034 216.754 330.113 217.41 330.113 218.131ZM327.151 218.315V218.131C327.151 217.762 327.125 217.425 327.072 217.12C327.02 216.81 326.935 216.54 326.817 216.312C326.706 216.083 326.557 215.907 326.369 215.784C326.182 215.661 325.95 215.6 325.675 215.6C325.358 215.6 325.092 215.649 324.875 215.749C324.664 215.843 324.494 215.989 324.365 216.188C324.242 216.382 324.154 216.625 324.102 216.918C324.055 217.205 324.034 217.542 324.04 217.929V218.649C324.028 219.095 324.072 219.487 324.172 219.827C324.271 220.161 324.444 220.422 324.69 220.609C324.937 220.797 325.271 220.891 325.692 220.891C325.974 220.891 326.208 220.826 326.396 220.697C326.583 220.562 326.732 220.378 326.844 220.144C326.955 219.903 327.034 219.628 327.081 219.317C327.128 219.007 327.151 218.673 327.151 218.315ZM334.42 215.846V223H331.458V213.49H334.227L334.42 215.846ZM337.232 213.42L337.18 216.171C337.062 216.159 336.904 216.145 336.705 216.127C336.506 216.109 336.339 216.101 336.204 216.101C335.858 216.101 335.56 216.142 335.308 216.224C335.062 216.3 334.856 216.417 334.692 216.575C334.534 216.728 334.417 216.921 334.341 217.155C334.271 217.39 334.238 217.662 334.244 217.973L333.708 217.621C333.708 216.982 333.77 216.402 333.893 215.881C334.021 215.354 334.203 214.899 334.438 214.519C334.672 214.132 334.956 213.836 335.29 213.631C335.624 213.42 335.999 213.314 336.415 213.314C336.562 213.314 336.705 213.323 336.846 213.341C336.992 213.358 337.121 213.385 337.232 213.42ZM342.682 223.176C341.908 223.176 341.217 223.056 340.607 222.815C339.998 222.569 339.482 222.232 339.061 221.805C338.645 221.377 338.325 220.885 338.103 220.328C337.886 219.771 337.777 219.183 337.777 218.562V218.228C337.777 217.53 337.874 216.886 338.067 216.294C338.261 215.696 338.548 215.175 338.929 214.729C339.31 214.284 339.787 213.938 340.361 213.692C340.936 213.44 341.604 213.314 342.365 213.314C343.039 213.314 343.643 213.423 344.176 213.64C344.709 213.856 345.16 214.167 345.529 214.571C345.904 214.976 346.188 215.465 346.382 216.039C346.581 216.613 346.681 217.258 346.681 217.973V219.177H338.911V217.322H343.789V217.094C343.795 216.777 343.739 216.508 343.622 216.285C343.511 216.062 343.347 215.893 343.13 215.775C342.913 215.658 342.649 215.6 342.339 215.6C342.017 215.6 341.75 215.67 341.539 215.811C341.334 215.951 341.173 216.145 341.056 216.391C340.944 216.631 340.865 216.909 340.818 217.226C340.771 217.542 340.748 217.876 340.748 218.228V218.562C340.748 218.913 340.795 219.232 340.889 219.52C340.988 219.807 341.129 220.053 341.311 220.258C341.498 220.457 341.721 220.612 341.979 220.724C342.242 220.835 342.541 220.891 342.875 220.891C343.279 220.891 343.678 220.814 344.07 220.662C344.463 220.51 344.8 220.258 345.081 219.906L346.426 221.506C346.232 221.781 345.957 222.048 345.6 222.306C345.248 222.563 344.826 222.774 344.334 222.938C343.842 223.097 343.291 223.176 342.682 223.176ZM352.868 220.328C352.868 220.164 352.812 220.023 352.701 219.906C352.596 219.783 352.408 219.672 352.139 219.572C351.869 219.467 351.491 219.361 351.005 219.256C350.542 219.156 350.105 219.024 349.695 218.86C349.291 218.696 348.937 218.497 348.632 218.263C348.327 218.028 348.087 217.75 347.911 217.428C347.741 217.105 347.656 216.736 347.656 216.32C347.656 215.916 347.741 215.535 347.911 215.178C348.087 214.814 348.342 214.495 348.676 214.22C349.016 213.938 349.429 213.719 349.915 213.561C350.401 213.396 350.955 213.314 351.576 213.314C352.432 213.314 353.17 213.446 353.791 213.71C354.412 213.968 354.89 214.331 355.224 214.8C355.563 215.263 355.733 215.799 355.733 216.408H352.771C352.771 216.168 352.73 215.963 352.648 215.793C352.572 215.623 352.446 215.494 352.271 215.406C352.095 215.312 351.86 215.266 351.567 215.266C351.362 215.266 351.175 215.304 351.005 215.38C350.841 215.456 350.709 215.562 350.609 215.696C350.51 215.831 350.46 215.989 350.46 216.171C350.46 216.3 350.489 216.417 350.548 216.522C350.612 216.622 350.709 216.716 350.838 216.804C350.967 216.886 351.131 216.962 351.33 217.032C351.529 217.097 351.77 217.155 352.051 217.208C352.689 217.325 353.287 217.492 353.844 217.709C354.4 217.926 354.852 218.233 355.197 218.632C355.549 219.03 355.725 219.566 355.725 220.24C355.725 220.662 355.628 221.052 355.435 221.409C355.241 221.761 354.963 222.071 354.6 222.341C354.236 222.604 353.8 222.81 353.29 222.956C352.78 223.103 352.206 223.176 351.567 223.176C350.659 223.176 349.892 223.015 349.265 222.692C348.638 222.364 348.163 221.954 347.841 221.462C347.524 220.964 347.366 220.46 347.366 219.95H350.126C350.138 220.243 350.208 220.483 350.337 220.671C350.472 220.858 350.65 220.996 350.873 221.084C351.096 221.172 351.354 221.216 351.646 221.216C351.916 221.216 352.139 221.178 352.314 221.102C352.496 221.025 352.634 220.923 352.728 220.794C352.821 220.659 352.868 220.504 352.868 220.328ZM362.097 220.328C362.097 220.164 362.041 220.023 361.93 219.906C361.824 219.783 361.637 219.672 361.367 219.572C361.098 219.467 360.72 219.361 360.233 219.256C359.771 219.156 359.334 219.024 358.924 218.86C358.52 218.696 358.165 218.497 357.86 218.263C357.556 218.028 357.315 217.75 357.14 217.428C356.97 217.105 356.885 216.736 356.885 216.32C356.885 215.916 356.97 215.535 357.14 215.178C357.315 214.814 357.57 214.495 357.904 214.22C358.244 213.938 358.657 213.719 359.144 213.561C359.63 213.396 360.184 213.314 360.805 213.314C361.66 213.314 362.398 213.446 363.02 213.71C363.641 213.968 364.118 214.331 364.452 214.8C364.792 215.263 364.962 215.799 364.962 216.408H362C362 216.168 361.959 215.963 361.877 215.793C361.801 215.623 361.675 215.494 361.499 215.406C361.323 215.312 361.089 215.266 360.796 215.266C360.591 215.266 360.403 215.304 360.233 215.38C360.069 215.456 359.938 215.562 359.838 215.696C359.738 215.831 359.688 215.989 359.688 216.171C359.688 216.3 359.718 216.417 359.776 216.522C359.841 216.622 359.938 216.716 360.066 216.804C360.195 216.886 360.359 216.962 360.559 217.032C360.758 217.097 360.998 217.155 361.279 217.208C361.918 217.325 362.516 217.492 363.072 217.709C363.629 217.926 364.08 218.233 364.426 218.632C364.777 219.03 364.953 219.566 364.953 220.24C364.953 220.662 364.856 221.052 364.663 221.409C364.47 221.761 364.191 222.071 363.828 222.341C363.465 222.604 363.028 222.81 362.519 222.956C362.009 223.103 361.435 223.176 360.796 223.176C359.888 223.176 359.12 223.015 358.493 222.692C357.866 222.364 357.392 221.954 357.069 221.462C356.753 220.964 356.595 220.46 356.595 219.95H359.354C359.366 220.243 359.437 220.483 359.565 220.671C359.7 220.858 359.879 220.996 360.102 221.084C360.324 221.172 360.582 221.216 360.875 221.216C361.145 221.216 361.367 221.178 361.543 221.102C361.725 221.025 361.862 220.923 361.956 220.794C362.05 220.659 362.097 220.504 362.097 220.328ZM371.571 218.983V210.203H374.647V218.983C374.647 219.839 374.451 220.58 374.059 221.207C373.672 221.834 373.145 222.32 372.477 222.666C371.814 223.006 371.07 223.176 370.244 223.176C369.389 223.176 368.627 223.032 367.959 222.745C367.297 222.458 366.775 222.016 366.395 221.418C366.02 220.82 365.832 220.059 365.832 219.133H368.926C368.926 219.566 368.976 219.906 369.075 220.152C369.175 220.393 369.321 220.562 369.515 220.662C369.714 220.756 369.957 220.803 370.244 220.803C370.525 220.803 370.763 220.732 370.956 220.592C371.155 220.445 371.308 220.237 371.413 219.968C371.519 219.692 371.571 219.364 371.571 218.983ZM383.199 219.599C383.199 219.399 383.17 219.221 383.111 219.062C383.053 218.898 382.944 218.746 382.786 218.605C382.628 218.465 382.399 218.324 382.101 218.184C381.808 218.037 381.421 217.885 380.94 217.727C380.378 217.539 379.836 217.328 379.314 217.094C378.793 216.854 378.327 216.575 377.917 216.259C377.507 215.937 377.182 215.562 376.941 215.134C376.701 214.7 376.581 214.196 376.581 213.622C376.581 213.071 376.704 212.576 376.95 212.137C377.196 211.691 377.539 211.313 377.979 211.003C378.424 210.687 378.945 210.446 379.543 210.282C380.141 210.112 380.794 210.027 381.503 210.027C382.44 210.027 383.267 210.191 383.981 210.52C384.702 210.842 385.265 211.302 385.669 211.899C386.079 212.491 386.284 213.191 386.284 214H383.217C383.217 213.678 383.149 213.394 383.015 213.147C382.886 212.901 382.689 212.708 382.426 212.567C382.162 212.427 381.831 212.356 381.433 212.356C381.046 212.356 380.721 212.415 380.457 212.532C380.193 212.649 379.994 212.808 379.859 213.007C379.725 213.2 379.657 213.414 379.657 213.648C379.657 213.842 379.71 214.018 379.815 214.176C379.927 214.328 380.082 214.472 380.281 214.606C380.486 214.741 380.732 214.87 381.02 214.993C381.312 215.116 381.641 215.236 382.004 215.354C382.684 215.57 383.287 215.813 383.814 216.083C384.348 216.347 384.796 216.648 385.159 216.988C385.528 217.322 385.807 217.703 385.994 218.131C386.188 218.559 386.284 219.042 386.284 219.581C386.284 220.155 386.173 220.665 385.95 221.11C385.728 221.556 385.408 221.934 384.992 222.244C384.576 222.549 384.078 222.78 383.498 222.938C382.918 223.097 382.271 223.176 381.556 223.176C380.899 223.176 380.252 223.094 379.613 222.93C378.98 222.76 378.406 222.502 377.891 222.156C377.375 221.805 376.962 221.356 376.651 220.812C376.347 220.261 376.194 219.607 376.194 218.852H379.288C379.288 219.227 379.338 219.543 379.438 219.801C379.537 220.059 379.684 220.267 379.877 220.425C380.07 220.577 380.308 220.688 380.589 220.759C380.87 220.823 381.192 220.855 381.556 220.855C381.948 220.855 382.265 220.8 382.505 220.688C382.745 220.571 382.921 220.419 383.032 220.231C383.144 220.038 383.199 219.827 383.199 219.599Z" fill="white"/>
<rect x="429" y="196" width="109" height="41" rx="3" fill="#424242"/>
<rect x="429" y="196" width="109" height="41" rx="3" stroke="#424242" stroke-width="4"/>
<path d="M463.118 210.203V223H460.042L455.516 215.037V223H452.431V210.203H455.516L460.042 218.166V210.203H463.118ZM464.56 218.342V218.157C464.56 217.46 464.659 216.818 464.858 216.232C465.058 215.641 465.351 215.128 465.737 214.694C466.124 214.261 466.602 213.924 467.17 213.684C467.738 213.438 468.395 213.314 469.139 213.314C469.889 213.314 470.548 213.438 471.116 213.684C471.69 213.924 472.171 214.261 472.558 214.694C472.944 215.128 473.237 215.641 473.437 216.232C473.636 216.818 473.735 217.46 473.735 218.157V218.342C473.735 219.033 473.636 219.675 473.437 220.267C473.237 220.853 472.944 221.365 472.558 221.805C472.171 222.238 471.693 222.575 471.125 222.815C470.557 223.056 469.9 223.176 469.156 223.176C468.412 223.176 467.753 223.056 467.179 222.815C466.604 222.575 466.124 222.238 465.737 221.805C465.351 221.365 465.058 220.853 464.858 220.267C464.659 219.675 464.56 219.033 464.56 218.342ZM467.521 218.157V218.342C467.521 218.699 467.548 219.033 467.601 219.344C467.653 219.654 467.741 219.927 467.864 220.161C467.987 220.39 468.154 220.568 468.365 220.697C468.576 220.826 468.84 220.891 469.156 220.891C469.467 220.891 469.725 220.826 469.93 220.697C470.141 220.568 470.308 220.39 470.431 220.161C470.554 219.927 470.642 219.654 470.694 219.344C470.747 219.033 470.773 218.699 470.773 218.342V218.157C470.773 217.812 470.747 217.486 470.694 217.182C470.642 216.871 470.554 216.599 470.431 216.364C470.308 216.124 470.141 215.937 469.93 215.802C469.719 215.667 469.455 215.6 469.139 215.6C468.828 215.6 468.567 215.667 468.356 215.802C468.151 215.937 467.987 216.124 467.864 216.364C467.741 216.599 467.653 216.871 467.601 217.182C467.548 217.486 467.521 217.812 467.521 218.157ZM480.521 220.82V209.5H483.5V223H480.828L480.521 220.82ZM474.685 218.359V218.175C474.685 217.454 474.764 216.798 474.922 216.206C475.08 215.608 475.314 215.096 475.625 214.668C475.936 214.234 476.322 213.9 476.785 213.666C477.248 213.432 477.781 213.314 478.385 213.314C478.924 213.314 479.396 213.44 479.8 213.692C480.204 213.938 480.55 214.284 480.837 214.729C481.124 215.175 481.358 215.696 481.54 216.294C481.722 216.886 481.859 217.524 481.953 218.21V218.43C481.859 219.074 481.722 219.684 481.54 220.258C481.358 220.826 481.124 221.33 480.837 221.77C480.55 222.209 480.201 222.555 479.791 222.807C479.387 223.053 478.912 223.176 478.367 223.176C477.764 223.176 477.23 223.056 476.768 222.815C476.311 222.575 475.927 222.238 475.616 221.805C475.312 221.371 475.08 220.861 474.922 220.275C474.764 219.689 474.685 219.051 474.685 218.359ZM477.646 218.175V218.359C477.646 218.717 477.67 219.048 477.717 219.353C477.764 219.657 477.843 219.927 477.954 220.161C478.071 220.39 478.224 220.568 478.411 220.697C478.604 220.826 478.842 220.891 479.123 220.891C479.504 220.891 479.817 220.8 480.063 220.618C480.315 220.437 480.5 220.179 480.617 219.845C480.74 219.511 480.793 219.118 480.775 218.667V217.973C480.787 217.586 480.761 217.246 480.696 216.953C480.632 216.654 480.529 216.405 480.389 216.206C480.254 216.007 480.081 215.857 479.87 215.758C479.665 215.652 479.422 215.6 479.141 215.6C478.865 215.6 478.631 215.664 478.438 215.793C478.25 215.922 478.098 216.104 477.98 216.338C477.863 216.566 477.778 216.839 477.726 217.155C477.673 217.466 477.646 217.806 477.646 218.175ZM489.784 223.176C489.011 223.176 488.319 223.056 487.71 222.815C487.101 222.569 486.585 222.232 486.163 221.805C485.747 221.377 485.428 220.885 485.205 220.328C484.988 219.771 484.88 219.183 484.88 218.562V218.228C484.88 217.53 484.977 216.886 485.17 216.294C485.363 215.696 485.65 215.175 486.031 214.729C486.412 214.284 486.89 213.938 487.464 213.692C488.038 213.44 488.706 213.314 489.468 213.314C490.142 213.314 490.745 213.423 491.278 213.64C491.812 213.856 492.263 214.167 492.632 214.571C493.007 214.976 493.291 215.465 493.484 216.039C493.684 216.613 493.783 217.258 493.783 217.973V219.177H486.014V217.322H490.892V217.094C490.897 216.777 490.842 216.508 490.725 216.285C490.613 216.062 490.449 215.893 490.232 215.775C490.016 215.658 489.752 215.6 489.441 215.6C489.119 215.6 488.853 215.67 488.642 215.811C488.437 215.951 488.275 216.145 488.158 216.391C488.047 216.631 487.968 216.909 487.921 217.226C487.874 217.542 487.851 217.876 487.851 218.228V218.562C487.851 218.913 487.897 219.232 487.991 219.52C488.091 219.807 488.231 220.053 488.413 220.258C488.601 220.457 488.823 220.612 489.081 220.724C489.345 220.835 489.644 220.891 489.978 220.891C490.382 220.891 490.78 220.814 491.173 220.662C491.565 220.51 491.902 220.258 492.184 219.906L493.528 221.506C493.335 221.781 493.06 222.048 492.702 222.306C492.351 222.563 491.929 222.774 491.437 222.938C490.944 223.097 490.394 223.176 489.784 223.176ZM500.217 218.983V210.203H503.293V218.983C503.293 219.839 503.097 220.58 502.704 221.207C502.317 221.834 501.79 222.32 501.122 222.666C500.46 223.006 499.716 223.176 498.89 223.176C498.034 223.176 497.272 223.032 496.604 222.745C495.942 222.458 495.421 222.016 495.04 221.418C494.665 220.82 494.478 220.059 494.478 219.133H497.571C497.571 219.566 497.621 219.906 497.721 220.152C497.82 220.393 497.967 220.562 498.16 220.662C498.359 220.756 498.603 220.803 498.89 220.803C499.171 220.803 499.408 220.732 499.602 220.592C499.801 220.445 499.953 220.237 500.059 219.968C500.164 219.692 500.217 219.364 500.217 218.983ZM511.845 219.599C511.845 219.399 511.815 219.221 511.757 219.062C511.698 218.898 511.59 218.746 511.432 218.605C511.273 218.465 511.045 218.324 510.746 218.184C510.453 218.037 510.066 217.885 509.586 217.727C509.023 217.539 508.481 217.328 507.96 217.094C507.438 216.854 506.973 216.575 506.562 216.259C506.152 215.937 505.827 215.562 505.587 215.134C505.347 214.7 505.227 214.196 505.227 213.622C505.227 213.071 505.35 212.576 505.596 212.137C505.842 211.691 506.185 211.313 506.624 211.003C507.069 210.687 507.591 210.446 508.188 210.282C508.786 210.112 509.439 210.027 510.148 210.027C511.086 210.027 511.912 210.191 512.627 210.52C513.348 210.842 513.91 211.302 514.314 211.899C514.725 212.491 514.93 213.191 514.93 214H511.862C511.862 213.678 511.795 213.394 511.66 213.147C511.531 212.901 511.335 212.708 511.071 212.567C510.808 212.427 510.477 212.356 510.078 212.356C509.691 212.356 509.366 212.415 509.103 212.532C508.839 212.649 508.64 212.808 508.505 213.007C508.37 213.2 508.303 213.414 508.303 213.648C508.303 213.842 508.355 214.018 508.461 214.176C508.572 214.328 508.728 214.472 508.927 214.606C509.132 214.741 509.378 214.87 509.665 214.993C509.958 215.116 510.286 215.236 510.649 215.354C511.329 215.57 511.933 215.813 512.46 216.083C512.993 216.347 513.441 216.648 513.805 216.988C514.174 217.322 514.452 217.703 514.64 218.131C514.833 218.559 514.93 219.042 514.93 219.581C514.93 220.155 514.818 220.665 514.596 221.11C514.373 221.556 514.054 221.934 513.638 222.244C513.222 222.549 512.724 222.78 512.144 222.938C511.563 223.097 510.916 223.176 510.201 223.176C509.545 223.176 508.897 223.094 508.259 222.93C507.626 222.76 507.052 222.502 506.536 222.156C506.021 221.805 505.607 221.356 505.297 220.812C504.992 220.261 504.84 219.607 504.84 218.852H507.934C507.934 219.227 507.983 219.543 508.083 219.801C508.183 220.059 508.329 220.267 508.522 220.425C508.716 220.577 508.953 220.688 509.234 220.759C509.516 220.823 509.838 220.855 510.201 220.855C510.594 220.855 510.91 220.8 511.15 220.688C511.391 220.571 511.566 220.419 511.678 220.231C511.789 220.038 511.845 219.827 511.845 219.599Z" fill="white"/>
<rect x="558" y="196" width="71" height="41" rx="3" fill="#424242"/>
<rect x="558" y="196" width="71" height="41" rx="3" stroke="#424242" stroke-width="4"/>
<path d="M584.289 210.203V223H581.213V210.203H584.289ZM585.95 218.342V218.157C585.95 217.46 586.05 216.818 586.249 216.232C586.448 215.641 586.741 215.128 587.128 214.694C587.515 214.261 587.992 213.924 588.561 213.684C589.129 213.438 589.785 213.314 590.529 213.314C591.279 213.314 591.938 213.438 592.507 213.684C593.081 213.924 593.562 214.261 593.948 214.694C594.335 215.128 594.628 215.641 594.827 216.232C595.026 216.818 595.126 217.46 595.126 218.157V218.342C595.126 219.033 595.026 219.675 594.827 220.267C594.628 220.853 594.335 221.365 593.948 221.805C593.562 222.238 593.084 222.575 592.516 222.815C591.947 223.056 591.291 223.176 590.547 223.176C589.803 223.176 589.144 223.056 588.569 222.815C587.995 222.575 587.515 222.238 587.128 221.805C586.741 221.365 586.448 220.853 586.249 220.267C586.05 219.675 585.95 219.033 585.95 218.342ZM588.912 218.157V218.342C588.912 218.699 588.938 219.033 588.991 219.344C589.044 219.654 589.132 219.927 589.255 220.161C589.378 220.39 589.545 220.568 589.756 220.697C589.967 220.826 590.23 220.891 590.547 220.891C590.857 220.891 591.115 220.826 591.32 220.697C591.531 220.568 591.698 220.39 591.821 220.161C591.944 219.927 592.032 219.654 592.085 219.344C592.138 219.033 592.164 218.699 592.164 218.342V218.157C592.164 217.812 592.138 217.486 592.085 217.182C592.032 216.871 591.944 216.599 591.821 216.364C591.698 216.124 591.531 215.937 591.32 215.802C591.109 215.667 590.846 215.6 590.529 215.6C590.219 215.6 589.958 215.667 589.747 215.802C589.542 215.937 589.378 216.124 589.255 216.364C589.132 216.599 589.044 216.871 588.991 217.182C588.938 217.486 588.912 217.812 588.912 218.157ZM602.781 210.203V223H599.696V210.203H602.781ZM606.631 210.203V212.585H595.935V210.203H606.631Z" fill="white"/>
<rect x="649" y="196" width="190" height="41" rx="3" fill="#424242"/>
<rect x="649" y="196" width="190" height="41" rx="3" stroke="#424242" stroke-width="4"/>
<path d="M673.564 210.203H676.078L678.935 219.106L681.791 210.203H684.305L679.954 223H677.915L673.564 210.203ZM672.035 210.203H674.637L675.12 220.012V223H672.035V210.203ZM683.232 210.203H685.843V223H682.749V220.012L683.232 210.203ZM692.619 220.609V216.689C692.619 216.42 692.581 216.188 692.505 215.995C692.429 215.802 692.309 215.652 692.145 215.547C691.98 215.436 691.761 215.38 691.485 215.38C691.263 215.38 691.072 215.418 690.914 215.494C690.756 215.57 690.636 215.685 690.554 215.837C690.472 215.989 690.431 216.183 690.431 216.417H687.469C687.469 215.978 687.565 215.57 687.759 215.195C687.958 214.814 688.239 214.483 688.603 214.202C688.972 213.921 689.411 213.704 689.921 213.552C690.437 213.394 691.011 213.314 691.644 213.314C692.399 213.314 693.073 213.44 693.665 213.692C694.263 213.944 694.734 214.322 695.08 214.826C695.426 215.324 695.599 215.951 695.599 216.707V220.601C695.599 221.222 695.634 221.693 695.704 222.016C695.774 222.332 695.874 222.61 696.003 222.851V223H693.032C692.892 222.707 692.786 222.35 692.716 221.928C692.651 221.5 692.619 221.061 692.619 220.609ZM692.979 217.19L692.997 218.772H691.688C691.412 218.772 691.178 218.811 690.984 218.887C690.797 218.963 690.645 219.068 690.527 219.203C690.416 219.332 690.334 219.479 690.281 219.643C690.234 219.807 690.211 219.979 690.211 220.161C690.211 220.337 690.252 220.495 690.334 220.636C690.422 220.771 690.539 220.876 690.686 220.952C690.832 221.028 690.996 221.066 691.178 221.066C691.506 221.066 691.784 221.005 692.013 220.882C692.247 220.753 692.426 220.598 692.549 220.416C692.672 220.234 692.733 220.064 692.733 219.906L693.384 221.119C693.267 221.354 693.132 221.591 692.979 221.831C692.833 222.071 692.648 222.294 692.426 222.499C692.209 222.698 691.942 222.862 691.626 222.991C691.31 223.114 690.926 223.176 690.475 223.176C689.889 223.176 689.35 223.056 688.857 222.815C688.371 222.575 687.981 222.241 687.688 221.813C687.396 221.38 687.249 220.882 687.249 220.319C687.249 219.827 687.337 219.388 687.513 219.001C687.694 218.614 687.967 218.286 688.33 218.017C688.693 217.747 689.156 217.542 689.719 217.401C690.281 217.261 690.943 217.19 691.705 217.19H692.979ZM701.259 220.891C701.534 220.891 701.769 220.841 701.962 220.741C702.161 220.636 702.311 220.489 702.41 220.302C702.516 220.108 702.565 219.877 702.56 219.607H705.346C705.352 220.322 705.176 220.949 704.818 221.488C704.467 222.021 703.986 222.438 703.377 222.736C702.773 223.029 702.091 223.176 701.329 223.176C700.585 223.176 699.935 223.056 699.378 222.815C698.821 222.569 698.355 222.229 697.98 221.796C697.611 221.356 697.333 220.844 697.146 220.258C696.964 219.672 696.873 219.036 696.873 218.351V218.148C696.873 217.463 696.964 216.827 697.146 216.241C697.333 215.649 697.611 215.137 697.98 214.703C698.355 214.264 698.818 213.924 699.369 213.684C699.926 213.438 700.573 213.314 701.312 213.314C702.103 213.314 702.8 213.464 703.403 213.763C704.013 214.062 704.49 214.495 704.836 215.063C705.182 215.632 705.352 216.32 705.346 217.129H702.56C702.565 216.842 702.521 216.584 702.428 216.355C702.334 216.127 702.188 215.945 701.988 215.811C701.795 215.67 701.546 215.6 701.241 215.6C700.937 215.6 700.69 215.667 700.503 215.802C700.315 215.937 700.172 216.124 700.072 216.364C699.979 216.599 699.914 216.868 699.879 217.173C699.85 217.478 699.835 217.803 699.835 218.148V218.351C699.835 218.702 699.85 219.033 699.879 219.344C699.914 219.648 699.981 219.918 700.081 220.152C700.181 220.381 700.324 220.562 700.512 220.697C700.699 220.826 700.948 220.891 701.259 220.891ZM709.512 209.5V223H706.55V209.5H709.512ZM709.16 217.92L708.466 217.938C708.466 217.27 708.548 216.654 708.712 216.092C708.876 215.529 709.11 215.04 709.415 214.624C709.72 214.208 710.086 213.886 710.514 213.657C710.941 213.429 711.416 213.314 711.938 213.314C712.406 213.314 712.834 213.382 713.221 213.517C713.613 213.651 713.95 213.868 714.231 214.167C714.519 214.466 714.738 214.855 714.891 215.336C715.049 215.816 715.128 216.402 715.128 217.094V223H712.148V217.076C712.148 216.689 712.093 216.391 711.981 216.18C711.876 215.963 711.724 215.813 711.524 215.731C711.325 215.644 711.082 215.6 710.795 215.6C710.449 215.6 710.168 215.658 709.951 215.775C709.734 215.893 709.567 216.057 709.45 216.268C709.339 216.473 709.263 216.716 709.222 216.997C709.181 217.278 709.16 217.586 709.16 217.92ZM719.9 213.49V223H716.93V213.49H719.9ZM716.754 211.038C716.754 210.616 716.906 210.271 717.211 210.001C717.516 209.731 717.911 209.597 718.397 209.597C718.884 209.597 719.279 209.731 719.584 210.001C719.889 210.271 720.041 210.616 720.041 211.038C720.041 211.46 719.889 211.806 719.584 212.075C719.279 212.345 718.884 212.479 718.397 212.479C717.911 212.479 717.516 212.345 717.211 212.075C716.906 211.806 716.754 211.46 716.754 211.038ZM724.638 215.521V223H721.676V213.49H724.453L724.638 215.521ZM724.286 217.92L723.592 217.938C723.592 217.211 723.68 216.563 723.855 215.995C724.031 215.421 724.28 214.935 724.603 214.536C724.925 214.138 725.309 213.836 725.754 213.631C726.205 213.42 726.706 213.314 727.257 213.314C727.696 213.314 728.098 213.379 728.461 213.508C728.83 213.637 729.146 213.845 729.41 214.132C729.68 214.419 729.885 214.8 730.025 215.274C730.172 215.743 730.245 216.323 730.245 217.015V223H727.266V217.006C727.266 216.625 727.213 216.335 727.107 216.136C727.002 215.931 726.85 215.79 726.65 215.714C726.451 215.638 726.208 215.6 725.921 215.6C725.616 215.6 725.358 215.658 725.147 215.775C724.937 215.893 724.767 216.057 724.638 216.268C724.515 216.473 724.424 216.716 724.365 216.997C724.312 217.278 724.286 217.586 724.286 217.92ZM736.494 223.176C735.721 223.176 735.029 223.056 734.42 222.815C733.811 222.569 733.295 222.232 732.873 221.805C732.457 221.377 732.138 220.885 731.915 220.328C731.698 219.771 731.59 219.183 731.59 218.562V218.228C731.59 217.53 731.687 216.886 731.88 216.294C732.073 215.696 732.36 215.175 732.741 214.729C733.122 214.284 733.6 213.938 734.174 213.692C734.748 213.44 735.416 213.314 736.178 213.314C736.852 213.314 737.455 213.423 737.988 213.64C738.521 213.856 738.973 214.167 739.342 214.571C739.717 214.976 740.001 215.465 740.194 216.039C740.394 216.613 740.493 217.258 740.493 217.973V219.177H732.724V217.322H737.602V217.094C737.607 216.777 737.552 216.508 737.435 216.285C737.323 216.062 737.159 215.893 736.942 215.775C736.726 215.658 736.462 215.6 736.151 215.6C735.829 215.6 735.562 215.67 735.352 215.811C735.146 215.951 734.985 216.145 734.868 216.391C734.757 216.631 734.678 216.909 734.631 217.226C734.584 217.542 734.561 217.876 734.561 218.228V218.562C734.561 218.913 734.607 219.232 734.701 219.52C734.801 219.807 734.941 220.053 735.123 220.258C735.311 220.457 735.533 220.612 735.791 220.724C736.055 220.835 736.354 220.891 736.688 220.891C737.092 220.891 737.49 220.814 737.883 220.662C738.275 220.51 738.612 220.258 738.894 219.906L740.238 221.506C740.045 221.781 739.77 222.048 739.412 222.306C739.061 222.563 738.639 222.774 738.146 222.938C737.654 223.097 737.104 223.176 736.494 223.176ZM754.775 220.627V223H748.307V220.627H754.775ZM749.405 210.203V223H746.32V210.203H749.405ZM760.541 223.176C759.768 223.176 759.076 223.056 758.467 222.815C757.857 222.569 757.342 222.232 756.92 221.805C756.504 221.377 756.185 220.885 755.962 220.328C755.745 219.771 755.637 219.183 755.637 218.562V218.228C755.637 217.53 755.733 216.886 755.927 216.294C756.12 215.696 756.407 215.175 756.788 214.729C757.169 214.284 757.646 213.938 758.221 213.692C758.795 213.44 759.463 213.314 760.225 213.314C760.898 213.314 761.502 213.423 762.035 213.64C762.568 213.856 763.02 214.167 763.389 214.571C763.764 214.976 764.048 215.465 764.241 216.039C764.44 216.613 764.54 217.258 764.54 217.973V219.177H756.771V217.322H761.648V217.094C761.654 216.777 761.599 216.508 761.481 216.285C761.37 216.062 761.206 215.893 760.989 215.775C760.772 215.658 760.509 215.6 760.198 215.6C759.876 215.6 759.609 215.67 759.398 215.811C759.193 215.951 759.032 216.145 758.915 216.391C758.804 216.631 758.725 216.909 758.678 217.226C758.631 217.542 758.607 217.876 758.607 218.228V218.562C758.607 218.913 758.654 219.232 758.748 219.52C758.848 219.807 758.988 220.053 759.17 220.258C759.357 220.457 759.58 220.612 759.838 220.724C760.102 220.835 760.4 220.891 760.734 220.891C761.139 220.891 761.537 220.814 761.93 220.662C762.322 220.51 762.659 220.258 762.94 219.906L764.285 221.506C764.092 221.781 763.816 222.048 763.459 222.306C763.107 222.563 762.686 222.774 762.193 222.938C761.701 223.097 761.15 223.176 760.541 223.176ZM770.684 220.609V216.689C770.684 216.42 770.646 216.188 770.569 215.995C770.493 215.802 770.373 215.652 770.209 215.547C770.045 215.436 769.825 215.38 769.55 215.38C769.327 215.38 769.137 215.418 768.979 215.494C768.82 215.57 768.7 215.685 768.618 215.837C768.536 215.989 768.495 216.183 768.495 216.417H765.533C765.533 215.978 765.63 215.57 765.823 215.195C766.022 214.814 766.304 214.483 766.667 214.202C767.036 213.921 767.476 213.704 767.985 213.552C768.501 213.394 769.075 213.314 769.708 213.314C770.464 213.314 771.138 213.44 771.729 213.692C772.327 213.944 772.799 214.322 773.145 214.826C773.49 215.324 773.663 215.951 773.663 216.707V220.601C773.663 221.222 773.698 221.693 773.769 222.016C773.839 222.332 773.938 222.61 774.067 222.851V223H771.097C770.956 222.707 770.851 222.35 770.78 221.928C770.716 221.5 770.684 221.061 770.684 220.609ZM771.044 217.19L771.062 218.772H769.752C769.477 218.772 769.242 218.811 769.049 218.887C768.861 218.963 768.709 219.068 768.592 219.203C768.48 219.332 768.398 219.479 768.346 219.643C768.299 219.807 768.275 219.979 768.275 220.161C768.275 220.337 768.316 220.495 768.398 220.636C768.486 220.771 768.604 220.876 768.75 220.952C768.896 221.028 769.061 221.066 769.242 221.066C769.57 221.066 769.849 221.005 770.077 220.882C770.312 220.753 770.49 220.598 770.613 220.416C770.736 220.234 770.798 220.064 770.798 219.906L771.448 221.119C771.331 221.354 771.196 221.591 771.044 221.831C770.897 222.071 770.713 222.294 770.49 222.499C770.273 222.698 770.007 222.862 769.69 222.991C769.374 223.114 768.99 223.176 768.539 223.176C767.953 223.176 767.414 223.056 766.922 222.815C766.436 222.575 766.046 222.241 765.753 221.813C765.46 221.38 765.313 220.882 765.313 220.319C765.313 219.827 765.401 219.388 765.577 219.001C765.759 218.614 766.031 218.286 766.395 218.017C766.758 217.747 767.221 217.542 767.783 217.401C768.346 217.261 769.008 217.19 769.77 217.19H771.044ZM778.295 215.846V223H775.333V213.49H778.102L778.295 215.846ZM781.107 213.42L781.055 216.171C780.938 216.159 780.779 216.145 780.58 216.127C780.381 216.109 780.214 216.101 780.079 216.101C779.733 216.101 779.435 216.142 779.183 216.224C778.937 216.3 778.731 216.417 778.567 216.575C778.409 216.728 778.292 216.921 778.216 217.155C778.146 217.39 778.113 217.662 778.119 217.973L777.583 217.621C777.583 216.982 777.645 216.402 777.768 215.881C777.896 215.354 778.078 214.899 778.312 214.519C778.547 214.132 778.831 213.836 779.165 213.631C779.499 213.42 779.874 213.314 780.29 213.314C780.437 213.314 780.58 213.323 780.721 213.341C780.867 213.358 780.996 213.385 781.107 213.42ZM785.036 215.521V223H782.074V213.49H784.852L785.036 215.521ZM784.685 217.92L783.99 217.938C783.99 217.211 784.078 216.563 784.254 215.995C784.43 215.421 784.679 214.935 785.001 214.536C785.323 214.138 785.707 213.836 786.152 213.631C786.604 213.42 787.104 213.314 787.655 213.314C788.095 213.314 788.496 213.379 788.859 213.508C789.229 213.637 789.545 213.845 789.809 214.132C790.078 214.419 790.283 214.8 790.424 215.274C790.57 215.743 790.644 216.323 790.644 217.015V223H787.664V217.006C787.664 216.625 787.611 216.335 787.506 216.136C787.4 215.931 787.248 215.79 787.049 215.714C786.85 215.638 786.606 215.6 786.319 215.6C786.015 215.6 785.757 215.658 785.546 215.775C785.335 215.893 785.165 216.057 785.036 216.268C784.913 216.473 784.822 216.716 784.764 216.997C784.711 217.278 784.685 217.586 784.685 217.92ZM795.416 213.49V223H792.445V213.49H795.416ZM792.27 211.038C792.27 210.616 792.422 210.271 792.727 210.001C793.031 209.731 793.427 209.597 793.913 209.597C794.399 209.597 794.795 209.731 795.1 210.001C795.404 210.271 795.557 210.616 795.557 211.038C795.557 211.46 795.404 211.806 795.1 212.075C794.795 212.345 794.399 212.479 793.913 212.479C793.427 212.479 793.031 212.345 792.727 212.075C792.422 211.806 792.27 211.46 792.27 211.038ZM800.153 215.521V223H797.191V213.49H799.969L800.153 215.521ZM799.802 217.92L799.107 217.938C799.107 217.211 799.195 216.563 799.371 215.995C799.547 215.421 799.796 214.935 800.118 214.536C800.44 214.138 800.824 213.836 801.27 213.631C801.721 213.42 802.222 213.314 802.772 213.314C803.212 213.314 803.613 213.379 803.977 213.508C804.346 213.637 804.662 213.845 804.926 214.132C805.195 214.419 805.4 214.8 805.541 215.274C805.688 215.743 805.761 216.323 805.761 217.015V223H802.781V217.006C802.781 216.625 802.729 216.335 802.623 216.136C802.518 215.931 802.365 215.79 802.166 215.714C801.967 215.638 801.724 215.6 801.437 215.6C801.132 215.6 800.874 215.658 800.663 215.775C800.452 215.893 800.282 216.057 800.153 216.268C800.03 216.473 799.939 216.716 799.881 216.997C799.828 217.278 799.802 217.586 799.802 217.92ZM813.381 213.49H816.07V222.631C816.07 223.51 815.868 224.254 815.464 224.863C815.06 225.479 814.494 225.944 813.768 226.261C813.047 226.583 812.203 226.744 811.236 226.744C810.809 226.744 810.372 226.688 809.927 226.577C809.481 226.472 809.065 226.313 808.679 226.103C808.292 225.892 807.967 225.631 807.703 225.32L808.942 223.58C809.183 223.85 809.484 224.078 809.848 224.266C810.211 224.459 810.639 224.556 811.131 224.556C811.559 224.556 811.916 224.479 812.203 224.327C812.496 224.175 812.719 223.952 812.871 223.659C813.023 223.372 813.1 223.023 813.1 222.613V215.74L813.381 213.49ZM807.062 218.359V218.175C807.062 217.454 807.149 216.798 807.325 216.206C807.507 215.608 807.765 215.096 808.099 214.668C808.438 214.234 808.849 213.9 809.329 213.666C809.81 213.432 810.352 213.314 810.955 213.314C811.605 213.314 812.139 213.44 812.555 213.692C812.977 213.938 813.313 214.284 813.565 214.729C813.823 215.175 814.022 215.696 814.163 216.294C814.31 216.886 814.433 217.524 814.532 218.21V218.43C814.433 219.074 814.295 219.684 814.119 220.258C813.949 220.826 813.727 221.33 813.451 221.77C813.176 222.209 812.83 222.555 812.414 222.807C812.004 223.053 811.512 223.176 810.938 223.176C810.34 223.176 809.801 223.056 809.32 222.815C808.846 222.575 808.438 222.238 808.099 221.805C807.765 221.371 807.507 220.861 807.325 220.275C807.149 219.689 807.062 219.051 807.062 218.359ZM810.023 218.175V218.359C810.023 218.717 810.056 219.048 810.12 219.353C810.19 219.657 810.296 219.927 810.437 220.161C810.577 220.39 810.75 220.568 810.955 220.697C811.166 220.826 811.412 220.891 811.693 220.891C812.121 220.891 812.467 220.8 812.73 220.618C812.994 220.437 813.185 220.179 813.302 219.845C813.419 219.511 813.469 219.118 813.451 218.667V217.973C813.463 217.586 813.437 217.246 813.372 216.953C813.308 216.654 813.205 216.405 813.064 216.206C812.93 216.007 812.748 215.857 812.52 215.758C812.297 215.652 812.027 215.6 811.711 215.6C811.436 215.6 811.192 215.664 810.981 215.793C810.771 215.922 810.595 216.104 810.454 216.338C810.313 216.566 810.205 216.839 810.129 217.155C810.059 217.466 810.023 217.806 810.023 218.175Z" fill="white"/>
<g clip-path="url(#clip0_3_61)">
<path d="M1066 0H1348C1356.28 0 1363 6.71573 1363 15V282C1363 290.284 1356.28 297 1348 297H1066V0Z" fill="white"/>
<rect x="1066" width="297" height="297" rx="60.75" fill="white"/>
<path d="M1161.97 36.8476C1163.91 35.0969 1180.29 40.4992 1185.33 46.6518C1191.52 54.1984 1186.94 68.5692 1186.92 68.6264C1186.84 68.6316 1171.36 69.6918 1165.53 62.3127C1158.31 53.1848 1163.52 41.0767 1161.8 37.9928C1161.7 37.814 1161.39 37.4273 1161.42 37.2843C1161.44 37.1682 1161.59 37.1022 1161.97 36.8476Z" fill="#88C346"/>
<path d="M1161.97 36.8476C1163.91 35.0969 1180.29 40.4992 1185.33 46.6518C1191.52 54.1984 1186.94 68.5692 1186.92 68.6264C1186.84 68.6316 1171.36 69.6918 1165.53 62.3127C1158.31 53.1848 1163.52 41.0767 1161.8 37.9928C1161.7 37.814 1161.39 37.4273 1161.42 37.2843C1161.44 37.1682 1161.59 37.1022 1161.97 36.8476Z" stroke="black"/>
<path d="M1155.68 77.2311C1155.74 77.0186 1156.03 76.8684 1156.76 76.3342C1160.55 72.798 1190.32 79.0016 1198.97 88.9325C1209.6 101.138 1199.4 127.86 1199.4 127.86C1199.26 127.887 1170.43 133.036 1160.45 121.082C1148.11 106.294 1159.14 83.5649 1156.31 78.4175C1156.14 78.1188 1155.61 77.4925 1155.68 77.2311Z" fill="#A7C841"/>
<path d="M1155.68 77.2311C1155.74 77.0186 1156.03 76.8684 1156.76 76.3342C1160.55 72.798 1190.32 79.0016 1198.97 88.9325C1209.6 101.138 1199.4 127.86 1199.4 127.86C1199.26 127.887 1170.43 133.036 1160.45 121.082C1148.11 106.294 1159.14 83.5649 1156.31 78.4175C1156.14 78.1188 1155.61 77.4925 1155.68 77.2311Z" stroke="black"/>
<path d="M1107.04 161.614C1106.85 161.523 1106.75 161.222 1106.37 160.439C1103.66 156.219 1114.74 128.936 1125.71 122.394C1139.19 114.356 1162.9 128.621 1162.9 128.621C1162.9 128.621 1162.84 157.074 1149.67 164.555C1133.43 173.787 1113.68 159.398 1108.28 161.222C1107.96 161.328 1107.27 161.727 1107.04 161.614Z" fill="#6CBB0D"/>
<path d="M1107.04 161.614C1106.85 161.523 1106.75 161.222 1106.37 160.439C1103.66 156.219 1114.74 128.936 1125.71 122.394C1139.19 114.356 1162.9 128.621 1162.9 128.621C1162.9 128.621 1162.84 157.074 1149.67 164.555C1133.43 173.787 1113.68 159.398 1108.28 161.222C1107.96 161.328 1107.27 161.727 1107.04 161.614Z" stroke="black"/>
<path d="M1307.2 190.125C1307.18 190.308 1306.96 190.461 1306.44 190.976C1303.81 194.288 1278.14 191.992 1269.47 184.553C1258.82 175.419 1263.28 152.21 1263.29 152.163C1263.29 152.163 1286.58 145.032 1296.69 154.051C1309.16 165.181 1303.37 185.183 1306.5 189.197C1306.68 189.43 1307.22 189.901 1307.2 190.125Z" fill="#88C346"/>
<path d="M1307.2 190.125C1307.18 190.308 1306.96 190.461 1306.44 190.976C1303.81 194.288 1278.14 191.992 1269.47 184.553C1258.82 175.419 1263.28 152.21 1263.29 152.163C1263.29 152.163 1286.58 145.032 1296.69 154.051C1309.16 165.181 1303.37 185.183 1306.5 189.197C1306.68 189.43 1307.22 189.901 1307.2 190.125Z" stroke="black"/>
<path d="M1317.4 75.7009C1319.44 77.9048 1314.72 95.8976 1308.39 101.301C1300.63 107.93 1284.68 102.418 1284.63 102.4C1284.63 102.4 1282.36 85.1417 1289.98 78.8806C1299.39 71.1546 1312.91 77.2893 1316.14 75.4755C1316.33 75.3701 1316.73 75.0381 1316.89 75.0752C1317.01 75.1056 1317.1 75.2758 1317.4 75.7009Z" fill="#88C346"/>
<path d="M1317.4 75.7009C1319.44 77.9048 1314.72 95.8976 1308.39 101.301C1300.63 107.93 1284.68 102.418 1284.63 102.4C1284.63 102.4 1282.36 85.1417 1289.98 78.8806C1299.39 71.1546 1312.91 77.2893 1316.14 75.4755C1316.33 75.3701 1316.73 75.0381 1316.89 75.0752C1317.01 75.1056 1317.1 75.2758 1317.4 75.7009Z" stroke="black"/>
<path d="M1139.4 207.421C1139.26 207.437 1139.13 207.3 1138.71 206.992C1136.07 205.562 1135.18 186.382 1139.67 178.896C1145.18 169.701 1162.31 169.475 1162.33 169.475C1162.33 169.475 1169.76 185.484 1164.27 194.261C1157.51 205.092 1142.57 203.869 1139.99 206.77C1139.84 206.938 1139.56 207.402 1139.4 207.421Z" fill="#88C346"/>
<path d="M1139.4 207.421C1139.26 207.437 1139.13 207.3 1138.71 206.992C1136.07 205.562 1135.18 186.382 1139.67 178.896C1145.18 169.701 1162.31 169.475 1162.33 169.475C1162.33 169.475 1169.76 185.484 1164.27 194.261C1157.51 205.092 1142.57 203.869 1139.99 206.77C1139.84 206.938 1139.56 207.402 1139.4 207.421Z" stroke="black"/>
<path d="M1280.94 65.7277C1281.13 65.7385 1281.29 65.9625 1281.83 66.4967C1285.3 69.1455 1282.79 96.3407 1274.94 105.786C1265.3 117.382 1240.94 113.562 1240.89 113.554C1240.89 113.554 1233.49 89.2377 1243.01 78.2183C1254.75 64.6212 1275.73 69.9576 1279.96 66.5001C1280.21 66.2995 1280.7 65.7148 1280.94 65.7277Z" fill="#A7C841"/>
<path d="M1280.94 65.7277C1281.13 65.7385 1281.29 65.9625 1281.83 66.4967C1285.3 69.1455 1282.79 96.3407 1274.94 105.786C1265.3 117.382 1240.94 113.562 1240.89 113.554C1240.89 113.554 1233.49 89.2377 1243.01 78.2183C1254.75 64.6212 1275.73 69.9576 1279.96 66.5001C1280.21 66.2995 1280.7 65.7148 1280.94 65.7277Z" stroke="black"/>
<path d="M1329.34 139.289C1329.41 139.452 1329.26 139.646 1328.99 140.239C1327.92 143.848 1302.58 149.002 1291.15 144.955C1277.1 139.982 1271.35 118.544 1271.35 118.544C1271.35 118.544 1290.38 105.866 1303.85 110.885C1320.47 117.079 1323.59 136.061 1328.28 138.677C1328.55 138.828 1329.26 139.088 1329.34 139.289Z" fill="#6CBB0D"/>
<path d="M1329.34 139.289C1329.41 139.452 1329.26 139.646 1328.99 140.239C1327.92 143.848 1302.58 149.002 1291.15 144.955C1277.1 139.982 1271.35 118.544 1271.35 118.544C1271.35 118.544 1290.38 105.866 1303.85 110.885C1320.47 117.079 1323.59 136.061 1328.28 138.677C1328.55 138.828 1329.26 139.088 1329.34 139.289Z" stroke="black"/>
<path d="M1116.79 77.2462C1116.81 77.1204 1116.97 77.0599 1117.37 76.8101C1119.43 75.0405 1137.13 82.3241 1142.65 89.5104C1149.42 98.3337 1144.7 113.809 1144.69 113.841C1144.69 113.841 1127.99 113.768 1121.59 105.146C1113.69 94.5052 1119.1 81.5946 1117.21 78.058C1117.1 77.8528 1116.76 77.401 1116.79 77.2462Z" fill="#88C346"/>
<path d="M1116.79 77.2462C1116.81 77.1204 1116.97 77.0599 1117.37 76.8101C1119.43 75.0405 1137.13 82.3241 1142.65 89.5104C1149.42 98.3337 1144.7 113.809 1144.69 113.841C1144.69 113.841 1127.99 113.768 1121.59 105.146C1113.69 94.5052 1119.1 81.5946 1117.21 78.058C1117.1 77.8528 1116.76 77.401 1116.79 77.2462Z" stroke="black"/>
<path d="M1221.06 28.6954C1225.41 28.4346 1241.28 50.6664 1241.5 62.9442C1241.78 78.0211 1220.84 91.0454 1220.8 91.0674C1220.8 91.0674 1199.32 77.4905 1199.32 62.9326C1199.33 44.9689 1216.95 31.5492 1218.72 29.4682L1220.41 28.6962L1221.06 28.6954Z" fill="#6CBB0D"/>
<path d="M1221.06 28.6954C1225.41 28.4346 1241.28 50.6664 1241.5 62.9442C1241.78 78.0211 1220.84 91.0454 1220.8 91.0674C1220.8 91.0674 1199.32 77.4905 1199.32 62.9326C1199.33 44.9689 1216.95 31.5492 1218.72 29.4682L1220.41 28.6962L1221.06 28.6954Z" stroke="black"/>
<path d="M1259.81 212.235C1257.67 213.354 1243.98 203.973 1240.74 196.897C1236.77 188.223 1244.05 176.039 1244.09 175.977C1244.09 175.977 1258.43 179.084 1262.13 187.535C1266.69 197.962 1261.17 209.665 1260.8 211.267L1260.14 212.09L1259.81 212.235Z" fill="#6CBB0D"/>
<path d="M1259.81 212.235C1257.67 213.354 1243.98 203.973 1240.74 196.897C1236.77 188.223 1244.05 176.039 1244.09 175.977C1244.09 175.977 1258.43 179.084 1262.13 187.535C1266.69 197.962 1261.17 209.665 1260.8 211.267L1260.14 212.09L1259.81 212.235Z" stroke="black"/>
<path d="M1216.19 258.188V205.875M1216.19 115.594V179.719M1216.19 179.719L1251.62 154.406V135M1216.19 179.719V205.875M1216.19 205.875L1177.38 179.719V154.406" stroke="black" stroke-width="11.8125"/>
<circle cx="1216.19" cy="108" r="10.125" fill="black"/>
<circle cx="1177.38" cy="148.5" r="10.125" fill="black"/>
<circle cx="1251.62" cy="128.25" r="10.125" fill="black"/>
<circle cx="1251.62" cy="128.25" r="5.0625" fill="#D9D9D9"/>
<circle cx="1216.19" cy="258.188" r="10.125" fill="black"/>
<circle cx="1177.38" cy="148.5" r="5.0625" fill="#D9D9D9"/>
<path d="M1221.25 258.188C1221.25 260.983 1218.98 263.25 1216.19 263.25C1213.39 263.25 1211.12 260.983 1211.12 258.188C1211.12 255.392 1213.39 253.125 1216.19 253.125C1218.98 253.125 1221.25 255.392 1221.25 258.188Z" fill="#D9D9D9"/>
<path d="M1221.25 108C1221.25 110.796 1218.98 113.062 1216.19 113.062C1213.39 113.062 1211.12 110.796 1211.12 108C1211.12 105.204 1213.39 102.938 1216.19 102.938C1218.98 102.938 1221.25 105.204 1221.25 108Z" fill="#D9D9D9"/>
</g>
<defs>
<clipPath id="clip0_3_61">
<path d="M1066 0H1348C1356.28 0 1363 6.71573 1363 15V282C1363 290.284 1356.28 297 1348 297H1066V0Z" fill="white"/>
</clipPath>
</defs>
</svg>
