<svg width="1363" height="163" viewBox="0 0 1363 163" fill="none" xmlns="http://www.w3.org/2000/svg">
<path d="M0 15C0 6.71573 6.71573 0 15 0H37V163H15C6.71573 163 0 156.284 0 148V15Z" fill="#00A72F"/>
<rect width="1097" height="163" transform="translate(37)" fill="#F0F0F0"/>
<path d="M101.906 53.9219L94.3945 51.2383V48.0859L104.602 52.375V54.6367L101.906 53.9219ZM94.3945 56.1719L101.918 53.4297L104.602 52.7852V55.0352L94.3945 59.3242V56.1719ZM124.348 58.2578V61H115.266V58.2578H124.348ZM116.414 43.9375V61H112.898V43.9375H116.414ZM123.164 50.8867V53.5586H115.266V50.8867H123.164ZM124.336 43.9375V46.6914H115.266V43.9375H124.336ZM131.191 58.5977C131.605 58.5977 131.973 58.5195 132.293 58.3633C132.613 58.1992 132.863 57.9727 133.043 57.6836C133.23 57.3867 133.328 57.0391 133.336 56.6406H136.512C136.504 57.5312 136.266 58.3242 135.797 59.0195C135.328 59.707 134.699 60.25 133.91 60.6484C133.121 61.0391 132.238 61.2344 131.262 61.2344C130.277 61.2344 129.418 61.0703 128.684 60.7422C127.957 60.4141 127.352 59.9609 126.867 59.3828C126.383 58.7969 126.02 58.1172 125.777 57.3438C125.535 56.5625 125.414 55.7266 125.414 54.8359V54.4961C125.414 53.5977 125.535 52.7617 125.777 51.9883C126.02 51.207 126.383 50.5273 126.867 49.9492C127.352 49.3633 127.957 48.9062 128.684 48.5781C129.41 48.25 130.262 48.0859 131.238 48.0859C132.277 48.0859 133.188 48.2852 133.969 48.6836C134.758 49.082 135.375 49.6523 135.82 50.3945C136.273 51.1289 136.504 52 136.512 53.0078H133.336C133.328 52.5859 133.238 52.2031 133.066 51.8594C132.902 51.5156 132.66 51.2422 132.34 51.0391C132.027 50.8281 131.641 50.7227 131.18 50.7227C130.688 50.7227 130.285 50.8281 129.973 51.0391C129.66 51.2422 129.418 51.5234 129.246 51.8828C129.074 52.2344 128.953 52.6367 128.883 53.0898C128.82 53.5352 128.789 54.0039 128.789 54.4961V54.8359C128.789 55.3281 128.82 55.8008 128.883 56.2539C128.945 56.707 129.062 57.1094 129.234 57.4609C129.414 57.8125 129.66 58.0898 129.973 58.293C130.285 58.4961 130.691 58.5977 131.191 58.5977ZM137.93 54.7891V54.543C137.93 53.6133 138.062 52.7578 138.328 51.9766C138.594 51.1875 138.98 50.5039 139.488 49.9258C139.996 49.3477 140.621 48.8984 141.363 48.5781C142.105 48.25 142.957 48.0859 143.918 48.0859C144.879 48.0859 145.734 48.25 146.484 48.5781C147.234 48.8984 147.863 49.3477 148.371 49.9258C148.887 50.5039 149.277 51.1875 149.543 51.9766C149.809 52.7578 149.941 53.6133 149.941 54.543V54.7891C149.941 55.7109 149.809 56.5664 149.543 57.3555C149.277 58.1367 148.887 58.8203 148.371 59.4062C147.863 59.9844 147.238 60.4336 146.496 60.7539C145.754 61.0742 144.902 61.2344 143.941 61.2344C142.98 61.2344 142.125 61.0742 141.375 60.7539C140.633 60.4336 140.004 59.9844 139.488 59.4062C138.98 58.8203 138.594 58.1367 138.328 57.3555C138.062 56.5664 137.93 55.7109 137.93 54.7891ZM141.305 54.543V54.7891C141.305 55.3203 141.352 55.8164 141.445 56.2773C141.539 56.7383 141.688 57.1445 141.891 57.4961C142.102 57.8398 142.375 58.1094 142.711 58.3047C143.047 58.5 143.457 58.5977 143.941 58.5977C144.41 58.5977 144.812 58.5 145.148 58.3047C145.484 58.1094 145.754 57.8398 145.957 57.4961C146.16 57.1445 146.309 56.7383 146.402 56.2773C146.504 55.8164 146.555 55.3203 146.555 54.7891V54.543C146.555 54.0273 146.504 53.543 146.402 53.0898C146.309 52.6289 146.156 52.2227 145.945 51.8711C145.742 51.5117 145.473 51.2305 145.137 51.0273C144.801 50.8242 144.395 50.7227 143.918 50.7227C143.441 50.7227 143.035 50.8242 142.699 51.0273C142.371 51.2305 142.102 51.5117 141.891 51.8711C141.688 52.2227 141.539 52.6289 141.445 53.0898C141.352 53.543 141.305 54.0273 141.305 54.543ZM159.855 43.9375V61H156.352V43.9375H159.855ZM165.105 43.9375V46.6914H151.184V43.9375H165.105ZM171.633 61.2344C170.648 61.2344 169.766 61.0781 168.984 60.7656C168.203 60.4453 167.539 60.0039 166.992 59.4414C166.453 58.8789 166.039 58.2266 165.75 57.4844C165.461 56.7344 165.316 55.9375 165.316 55.0938V54.625C165.316 53.6641 165.453 52.7852 165.727 51.9883C166 51.1914 166.391 50.5 166.898 49.9141C167.414 49.3281 168.039 48.8789 168.773 48.5664C169.508 48.2461 170.336 48.0859 171.258 48.0859C172.156 48.0859 172.953 48.2344 173.648 48.5312C174.344 48.8281 174.926 49.25 175.395 49.7969C175.871 50.3438 176.23 51 176.473 51.7656C176.715 52.5234 176.836 53.3672 176.836 54.2969V55.7031H166.758V53.4531H173.52V53.1953C173.52 52.7266 173.434 52.3086 173.262 51.9414C173.098 51.5664 172.848 51.2695 172.512 51.0508C172.176 50.832 171.746 50.7227 171.223 50.7227C170.777 50.7227 170.395 50.8203 170.074 51.0156C169.754 51.2109 169.492 51.4844 169.289 51.8359C169.094 52.1875 168.945 52.6016 168.844 53.0781C168.75 53.5469 168.703 54.0625 168.703 54.625V55.0938C168.703 55.6016 168.773 56.0703 168.914 56.5C169.062 56.9297 169.27 57.3008 169.535 57.6133C169.809 57.9258 170.137 58.168 170.52 58.3398C170.91 58.5117 171.352 58.5977 171.844 58.5977C172.453 58.5977 173.02 58.4805 173.543 58.2461C174.074 58.0039 174.531 57.6406 174.914 57.1562L176.555 58.9375C176.289 59.3203 175.926 59.6875 175.465 60.0391C175.012 60.3906 174.465 60.6797 173.824 60.9062C173.184 61.125 172.453 61.2344 171.633 61.2344ZM183.996 58.5977C184.41 58.5977 184.777 58.5195 185.098 58.3633C185.418 58.1992 185.668 57.9727 185.848 57.6836C186.035 57.3867 186.133 57.0391 186.141 56.6406H189.316C189.309 57.5312 189.07 58.3242 188.602 59.0195C188.133 59.707 187.504 60.25 186.715 60.6484C185.926 61.0391 185.043 61.2344 184.066 61.2344C183.082 61.2344 182.223 61.0703 181.488 60.7422C180.762 60.4141 180.156 59.9609 179.672 59.3828C179.188 58.7969 178.824 58.1172 178.582 57.3438C178.34 56.5625 178.219 55.7266 178.219 54.8359V54.4961C178.219 53.5977 178.34 52.7617 178.582 51.9883C178.824 51.207 179.188 50.5273 179.672 49.9492C180.156 49.3633 180.762 48.9062 181.488 48.5781C182.215 48.25 183.066 48.0859 184.043 48.0859C185.082 48.0859 185.992 48.2852 186.773 48.6836C187.562 49.082 188.18 49.6523 188.625 50.3945C189.078 51.1289 189.309 52 189.316 53.0078H186.141C186.133 52.5859 186.043 52.2031 185.871 51.8594C185.707 51.5156 185.465 51.2422 185.145 51.0391C184.832 50.8281 184.445 50.7227 183.984 50.7227C183.492 50.7227 183.09 50.8281 182.777 51.0391C182.465 51.2422 182.223 51.5234 182.051 51.8828C181.879 52.2344 181.758 52.6367 181.688 53.0898C181.625 53.5352 181.594 54.0039 181.594 54.4961V54.8359C181.594 55.3281 181.625 55.8008 181.688 56.2539C181.75 56.707 181.867 57.1094 182.039 57.4609C182.219 57.8125 182.465 58.0898 182.777 58.293C183.09 58.4961 183.496 58.5977 183.996 58.5977ZM194.566 43V61H191.191V43H194.566ZM194.086 54.2148H193.16C193.168 53.332 193.285 52.5195 193.512 51.7773C193.738 51.0273 194.062 50.3789 194.484 49.832C194.906 49.2773 195.41 48.8477 195.996 48.543C196.59 48.2383 197.246 48.0859 197.965 48.0859C198.59 48.0859 199.156 48.1758 199.664 48.3555C200.18 48.5273 200.621 48.8086 200.988 49.1992C201.363 49.582 201.652 50.0859 201.855 50.7109C202.059 51.3359 202.16 52.0938 202.16 52.9844V61H198.762V52.9609C198.762 52.3984 198.68 51.957 198.516 51.6367C198.359 51.3086 198.129 51.0781 197.824 50.9453C197.527 50.8047 197.16 50.7344 196.723 50.7344C196.238 50.7344 195.824 50.8242 195.48 51.0039C195.145 51.1836 194.875 51.4336 194.672 51.7539C194.469 52.0664 194.32 52.4336 194.227 52.8555C194.133 53.2773 194.086 53.7305 194.086 54.2148Z" fill="#888888"/>
<path d="M106.688 119H99.1172L99.1641 112.672H106.688C108.25 112.672 109.57 112.297 110.648 111.547C111.742 110.797 112.57 109.68 113.133 108.195C113.711 106.695 114 104.852 114 102.664V101.188C114 99.5469 113.836 98.1094 113.508 96.875C113.195 95.625 112.727 94.5859 112.102 93.7578C111.477 92.9141 110.695 92.2812 109.758 91.8594C108.836 91.4375 107.773 91.2266 106.57 91.2266H98.9766V84.875H106.57C108.883 84.875 111 85.2734 112.922 86.0703C114.859 86.8516 116.531 87.9766 117.938 89.4453C119.359 90.8984 120.453 92.625 121.219 94.625C122 96.6094 122.391 98.8125 122.391 101.234V102.664C122.391 105.07 122 107.273 121.219 109.273C120.453 111.273 119.367 113 117.961 114.453C116.555 115.906 114.891 117.031 112.969 117.828C111.062 118.609 108.969 119 106.688 119ZM103.828 84.875V119H95.6016V84.875H103.828ZM138.586 119.469C136.523 119.469 134.68 119.148 133.055 118.508C131.43 117.852 130.055 116.953 128.93 115.812C127.82 114.672 126.969 113.359 126.375 111.875C125.797 110.391 125.508 108.82 125.508 107.164V106.273C125.508 104.414 125.766 102.695 126.281 101.117C126.797 99.5234 127.562 98.1328 128.578 96.9453C129.594 95.7578 130.867 94.8359 132.398 94.1797C133.93 93.5078 135.711 93.1719 137.742 93.1719C139.539 93.1719 141.148 93.4609 142.57 94.0391C143.992 94.6172 145.195 95.4453 146.18 96.5234C147.18 97.6016 147.938 98.9062 148.453 100.438C148.984 101.969 149.25 103.688 149.25 105.594V108.805H128.531V103.859H141.539V103.25C141.555 102.406 141.406 101.688 141.094 101.094C140.797 100.5 140.359 100.047 139.781 99.7344C139.203 99.4219 138.5 99.2656 137.672 99.2656C136.812 99.2656 136.102 99.4531 135.539 99.8281C134.992 100.203 134.562 100.719 134.25 101.375C133.953 102.016 133.742 102.758 133.617 103.602C133.492 104.445 133.43 105.336 133.43 106.273V107.164C133.43 108.102 133.555 108.953 133.805 109.719C134.07 110.484 134.445 111.141 134.93 111.688C135.43 112.219 136.023 112.633 136.711 112.93C137.414 113.227 138.211 113.375 139.102 113.375C140.18 113.375 141.242 113.172 142.289 112.766C143.336 112.359 144.234 111.688 144.984 110.75L148.57 115.016C148.055 115.75 147.32 116.461 146.367 117.148C145.43 117.836 144.305 118.398 142.992 118.836C141.68 119.258 140.211 119.469 138.586 119.469ZM160.43 99.0078V119H152.531V93.6406H159.938L160.43 99.0078ZM159.469 105.453L157.664 105.5C157.664 103.719 157.875 102.078 158.297 100.578C158.719 99.0781 159.344 97.7734 160.172 96.6641C161 95.5547 162.016 94.6953 163.219 94.0859C164.438 93.4766 165.844 93.1719 167.438 93.1719C168.547 93.1719 169.555 93.3438 170.461 93.6875C171.367 94.0156 172.148 94.5391 172.805 95.2578C173.461 95.9609 173.961 96.8828 174.305 98.0234C174.664 99.1484 174.844 100.5 174.844 102.078V119H166.945V103.086C166.945 102.008 166.82 101.195 166.57 100.648C166.336 100.102 165.992 99.7344 165.539 99.5469C165.086 99.3594 164.531 99.2656 163.875 99.2656C163.188 99.2656 162.57 99.4219 162.023 99.7344C161.477 100.047 161.008 100.484 160.617 101.047C160.242 101.594 159.953 102.242 159.75 102.992C159.562 103.742 159.469 104.562 159.469 105.453ZM173.953 105.453L171.75 105.5C171.75 103.719 171.945 102.078 172.336 100.578C172.742 99.0781 173.344 97.7734 174.141 96.6641C174.953 95.5547 175.961 94.6953 177.164 94.0859C178.367 93.4766 179.766 93.1719 181.359 93.1719C182.516 93.1719 183.578 93.3438 184.547 93.6875C185.516 94.0312 186.352 94.5859 187.055 95.3516C187.758 96.1172 188.305 97.1328 188.695 98.3984C189.086 99.6484 189.281 101.195 189.281 103.039V119H181.359V103.039C181.359 101.992 181.234 101.203 180.984 100.672C180.75 100.125 180.406 99.7578 179.953 99.5703C179.5 99.3672 178.961 99.2656 178.336 99.2656C177.586 99.2656 176.938 99.4219 176.391 99.7344C175.844 100.047 175.383 100.484 175.008 101.047C174.648 101.594 174.383 102.242 174.211 102.992C174.039 103.742 173.953 104.562 173.953 105.453ZM192.82 106.578V106.086C192.82 104.227 193.086 102.516 193.617 100.953C194.148 99.375 194.93 98.0078 195.961 96.8516C196.992 95.6953 198.266 94.7969 199.781 94.1562C201.297 93.5 203.047 93.1719 205.031 93.1719C207.031 93.1719 208.789 93.5 210.305 94.1562C211.836 94.7969 213.117 95.6953 214.148 96.8516C215.18 98.0078 215.961 99.375 216.492 100.953C217.023 102.516 217.289 104.227 217.289 106.086V106.578C217.289 108.422 217.023 110.133 216.492 111.711C215.961 113.273 215.18 114.641 214.148 115.812C213.117 116.969 211.844 117.867 210.328 118.508C208.812 119.148 207.062 119.469 205.078 119.469C203.094 119.469 201.336 119.148 199.805 118.508C198.273 117.867 196.992 116.969 195.961 115.812C194.93 114.641 194.148 113.273 193.617 111.711C193.086 110.133 192.82 108.422 192.82 106.578ZM200.719 106.086V106.578C200.719 107.531 200.789 108.422 200.93 109.25C201.07 110.078 201.305 110.805 201.633 111.43C201.961 112.039 202.406 112.516 202.969 112.859C203.531 113.203 204.234 113.375 205.078 113.375C205.906 113.375 206.594 113.203 207.141 112.859C207.703 112.516 208.148 112.039 208.477 111.43C208.805 110.805 209.039 110.078 209.18 109.25C209.32 108.422 209.391 107.531 209.391 106.578V106.086C209.391 105.164 209.32 104.297 209.18 103.484C209.039 102.656 208.805 101.93 208.477 101.305C208.148 100.664 207.703 100.164 207.141 99.8047C206.578 99.4453 205.875 99.2656 205.031 99.2656C204.203 99.2656 203.508 99.4453 202.945 99.8047C202.398 100.164 201.961 100.664 201.633 101.305C201.305 101.93 201.07 102.656 200.93 103.484C200.789 104.297 200.719 105.164 200.719 106.086Z" fill="black"/>
<path d="M1134 0H1348C1356.28 0 1363 6.71573 1363 15V148C1363 156.284 1356.28 163 1348 163H1134V0Z" fill="#00A72F"/>
<path d="M1281 46.5H1216L1213.5 49V114L1216 116.5H1281L1283.5 114V49L1281 46.5ZM1278.5 111.5H1233.5V101.5H1245C1246.5 104.5 1250 106.5 1253.5 106.5C1259 106.5 1263.5 102 1263.5 96.5C1263.5 91 1259 86.5 1253.5 86.5C1248 86.5 1243.5 91 1243.5 96.5H1228.5V111.5H1218.5V51.5H1228.5V63C1225.5 64.5 1223.5 68 1223.5 71.5C1223.5 77 1228 81.5 1233.5 81.5C1239 81.5 1243.5 77 1243.5 71.5H1253.5C1253.5 77 1258 81.5 1263.5 81.5C1269 81.5 1273.5 77 1273.5 71.5C1273.5 66 1269 61.5 1263.5 61.5C1260 61.5 1256.5 63.5 1255 66.5H1242C1240.5 63.5 1237 61.5 1233.5 61.5V51.5H1278.5V111.5ZM1248.5 96.5C1248.5 93.5 1250.5 91.5 1253.5 91.5C1256.5 91.5 1258.5 93.5 1258.5 96.5C1258.5 99.5 1256.5 101.5 1253.5 101.5C1250.5 101.5 1248.5 99.5 1248.5 96.5ZM1233.5 66.5C1236.5 66.5 1238.5 68.5 1238.5 71.5C1238.5 74.5 1236.5 76.5 1233.5 76.5C1230.5 76.5 1228.5 74.5 1228.5 71.5C1228.5 68.5 1230.5 66.5 1233.5 66.5ZM1263.5 66.5C1266.5 66.5 1268.5 68.5 1268.5 71.5C1268.5 74.5 1266.5 76.5 1263.5 76.5C1260.5 76.5 1258.5 74.5 1258.5 71.5C1258.5 68.5 1260.5 66.5 1263.5 66.5Z" fill="white"/>
</svg>
